<?xml version="1.0" encoding="utf-8"?>
<!-- Generator: Adobe Illustrator 22.1.0, SVG Export Plug-In . SVG Version: 6.00 Build 0)  -->
<svg version="1.1" id="Calque_1" xmlns="http://www.w3.org/2000/svg" xmlns:xlink="http://www.w3.org/1999/xlink" x="0px" y="0px"
	 viewBox="0 0 250 50" style="enable-background:new 0 0 250 50;" xml:space="preserve">
<style type="text/css">
	.st0{fill:none;}
	.st1{font-family:'MyriadPro-Regular';}
	.st2{font-size:12px;}
</style>
<g>
	<g>
		<path d="M36,17.5c11-0.4,22.1-0.6,33.1-0.9l33.1-0.6l33.1-0.4l16.6-0.1l16.6,0L151.9,16l-16.6,0.4L102.3,17l-33.1,0.4
			C58.1,17.5,47,17.5,36,17.5z"/>
	</g>
	<g>
		<path d="M36.5,19.5c0.4,3.2,0.5,6.3,0.5,9.5c0,3.2-0.1,6.3-0.5,9.5C36.1,35.3,36,32.2,36,29C36,25.8,36.1,22.7,36.5,19.5z"/>
	</g>
	<g>
		<path d="M40.5,37.5c10.2-0.4,20.5-0.6,30.7-0.9L102,36l30.8-0.4l15.4-0.1l15.4,0L148.1,36l-15.4,0.4L102,37l-30.8,0.4
			C61,37.5,50.8,37.5,40.5,37.5z"/>
	</g>
	<g>
		<path d="M168.5,15.5c0.4,2.8,0.5,5.7,0.5,8.5c0,2.8-0.1,5.7-0.5,8.5c-0.4-2.8-0.5-5.7-0.5-8.5C168,21.2,168.1,18.3,168.5,15.5z"/>
	</g>
	<rect x="40.3" y="22" class="st0" width="122.6" height="9.9"/>
	<text transform="matrix(1 0 0 1 62.6592 30.4834)" class="st1 st2">DISPONIBILITES</text>
</g>
</svg>
