<svg enable-background="new 0 0 250 50" viewBox="0 0 250 50" xmlns="http://www.w3.org/2000/svg"><path d="m0 19.7h250v10.3h-250z" fill="none"/><text font-family="'Didot'" font-size="12" transform="translate(73.1431 28.3184)">DISPONIBILITES</text><path d="m0 48c10.4-.2 20.8-.3 31.2-.5l31.2-.3c20.8-.2 41.7-.1 62.5-.2 20.8.1 41.7.1 62.5.2l31.2.3c10.4.2 20.8.3 31.2.5-10.4.2-20.8.3-31.2.5l-31.2.3c-20.8.2-41.7.2-62.5.2-20.8-.1-41.7-.1-62.5-.2l-31.2-.3c-10.4-.2-20.8-.3-31.2-.5z"/><path d="m247.5 4c.2 3.3.3 6.7.4 10s.1 6.7.1 10 0 6.7-.1 10l-.1 5c-.1 1.7-.1 3.3-.2 5-.1-1.7-.2-3.3-.2-5l-.1-5c-.1-3.3-.1-6.7-.1-10s0-6.7.1-10c-.1-3.3 0-6.7.2-10z"/><path d="m0 2c10.4-.2 20.8-.3 31.2-.5l31.2-.3c20.9-.1 41.8-.1 62.6-.2 20.8.1 41.7.1 62.5.2l31.2.3c10.5.2 20.9.3 31.3.5-10.4.2-20.8.3-31.2.5l-31.2.3c-20.9.1-41.8.1-62.6.2-20.8-.1-41.7-.1-62.5-.2l-31.3-.3c-10.4-.2-20.8-.3-31.2-.5z"/><path d="m0 2c10.4-.2 20.8-.3 31.2-.5l31.2-.3c20.9-.1 41.8-.1 62.6-.2 20.8.1 41.7.1 62.5.2l31.2.3c10.5.2 20.9.3 31.3.5-10.4.2-20.8.3-31.2.5l-31.2.3c-20.9.1-41.8.1-62.6.2-20.8-.1-41.7-.1-62.5-.2l-31.3-.3c-10.4-.2-20.8-.3-31.2-.5z"/><path d="m0 2 31.2-.2 31.3-.1 62.5-.2 62.5.2 31.3.1 31.2.2-31.2.2-31.3.1-62.5.2-62.5-.2-31.3-.1z"/><path d="m2 4c.2 3.3.3 6.7.4 10s.1 6.7.1 10 0 6.7-.1 10l-.1 5c-.1 1.7-.1 3.3-.2 5-.1-1.7-.2-3.3-.2-5l-.1-5c-.1-3.3-.1-6.7-.1-10s0-6.7.1-10c-.1-3.3 0-6.7.2-10z"/></svg>