<?xml version="1.0" encoding="UTF-8"?>
<!DOCTYPE svg PUBLIC "-//W3C//DTD SVG 1.1//EN" "http://www.w3.org/Graphics/SVG/1.1/DTD/svg11.dtd">
<!-- Creator: CorelDRAW -->
<svg xmlns="http://www.w3.org/2000/svg" xml:space="preserve" width="64px" height="64px" shape-rendering="geometricPrecision" text-rendering="geometricPrecision" image-rendering="optimizeQuality" fill-rule="evenodd" clip-rule="evenodd"
viewBox="0 0 640 640"
 xmlns:xlink="http://www.w3.org/1999/xlink">
 <g id="Layer_x0020_1">
  <metadata id="CorelCorpID_0Corel-Layer"/>
  <path fill="black" d="M184.715 2.752l270.582 0c101.611,0 184.703,82.064 184.703,182.317l0 269.85c0,100.277 -83.0916,182.317 -184.703,182.317l-270.582 0c-101.611,0 -184.715,-82.0404 -184.715,-182.317l0 -269.85c0,-100.253 83.1034,-182.317 184.715,-182.317zm133.561 145.939c98.7414,0 178.868,80.127 178.868,178.868 0,98.7532 -80.127,178.868 -178.868,178.868 -98.765,0 -178.88,-80.1152 -178.88,-178.868 0,-98.7414 80.1152,-178.868 178.88,-178.868zm0 60.4141c65.3866,0 118.454,53.0558 118.454,118.454 0,65.3984 -53.0676,118.466 -118.454,118.466 -65.4103,0 -118.466,-53.0676 -118.466,-118.466 0,-65.3984 53.0558,-118.454 118.466,-118.454zm173.045 -85.2058c16.0396,0 29.0437,13.0041 29.0437,29.0319 0,16.0396 -13.0041,29.0437 -29.0437,29.0437 -16.0278,0 -29.0319,-13.0041 -29.0319,-29.0437 0,-16.0278 13.0041,-29.0319 29.0319,-29.0319zm-284.496 -69.3198l226.385 0c85.005,0 154.526,69.178 154.526,153.711l0 227.519c0,84.5325 -69.5205,153.699 -154.526,153.699l-226.385 0c-85.005,0 -154.537,-69.1662 -154.537,-153.699l0 -227.519c0,-84.5325 69.5324,-153.711 154.537,-153.711z"/>
 </g>
</svg>
