<?xml version="1.0" encoding="utf-8"?>
<!-- Generator: Adobe Illustrator 22.1.0, SVG Export Plug-In . SVG Version: 6.00 Build 0)  -->
<svg version="1.1" id="Calque_1" xmlns="http://www.w3.org/2000/svg" xmlns:xlink="http://www.w3.org/1999/xlink" x="0px" y="0px"
	 viewBox="0 0 199 54" style="enable-background:new 0 0 199 54;" xml:space="preserve">
<style type="text/css">
	.st0{fill:none;}
	.st1{opacity:0.89;enable-background:new    ;}
	.st2{fill:#403F3F;}
	.st3{opacity:0.85;enable-background:new    ;}
</style>
<g>
	<path class="st0" d="M-26,5h250v36H-26V5z"/>
</g>
<g class="st1">
	<path class="st2" d="M10.3,6.7v0.4H7.8v18.5h4.5c0.6,0,1.2-0.1,1.8-0.3c0.6-0.2,1.2-0.5,1.7-1s1-1.1,1.4-1.8c0.4-0.7,0.8-1.6,1-2.7
		h0.4v6.1H1.4v-0.4h2.5V7.1H1.4V6.7H10.3z"/>
</g>
<g class="st1">
	<path class="st2" d="M30.5,13.8v2.9h-0.2c-0.1-0.2-0.2-0.4-0.3-0.7c-0.1-0.3-0.3-0.6-0.6-0.9s-0.6-0.5-0.9-0.7
		C28.1,14.1,27.6,14,27,14h-2.7v5.3h1c0.4,0,0.8-0.1,1.1-0.2c0.3-0.1,0.5-0.3,0.7-0.5c0.2-0.2,0.4-0.5,0.5-0.8
		c0.1-0.3,0.2-0.7,0.3-1h0.2V22h-0.2c-0.1-0.3-0.2-0.6-0.3-1c-0.1-0.3-0.3-0.6-0.4-0.8s-0.4-0.4-0.7-0.6c-0.3-0.1-0.6-0.2-1-0.2
		h-1.1v6.1h2.8c0.5,0,1-0.1,1.4-0.3c0.4-0.2,0.8-0.4,1.1-0.7c0.3-0.3,0.6-0.7,0.8-1.1s0.4-0.9,0.5-1.4h0.2v3.7H20.3v-0.2h1.6V14
		h-1.6v-0.2H30.5z"/>
</g>
<g class="st1">
	<path class="st2" d="M33.4,21.9c0,0.1,0.1,0.3,0.1,0.6c0.1,0.2,0.1,0.5,0.3,0.8c0.1,0.3,0.3,0.5,0.4,0.8c0.2,0.3,0.4,0.5,0.6,0.8
		c0.3,0.3,0.5,0.5,0.8,0.6c0.3,0.1,0.5,0.2,0.7,0.3c0.2,0.1,0.5,0.1,0.7,0.1s0.4,0,0.6,0c0.6,0,1.2-0.1,1.6-0.3
		c0.4-0.2,0.7-0.4,1-0.7c0.2-0.3,0.4-0.6,0.5-0.9c0.1-0.3,0.1-0.6,0.1-0.8c0-0.4-0.1-0.8-0.3-1.1s-0.5-0.5-0.8-0.7s-0.7-0.4-1.2-0.5
		c-0.4-0.1-0.9-0.3-1.4-0.4c-0.5-0.1-0.9-0.3-1.4-0.5c-0.4-0.2-0.8-0.4-1.2-0.7c-0.3-0.3-0.6-0.7-0.8-1.1c-0.2-0.4-0.3-1-0.3-1.6
		c0-0.5,0.1-0.9,0.3-1.4c0.2-0.4,0.5-0.8,0.9-1.2c0.4-0.3,0.8-0.6,1.4-0.8c0.5-0.2,1.1-0.3,1.7-0.3c0.4,0,0.7,0,1,0.1
		c0.3,0.1,0.6,0.1,0.8,0.2c0.2,0.1,0.4,0.2,0.6,0.2c0.2,0.1,0.3,0.1,0.5,0.1c0.2,0,0.3,0,0.3-0.1c0.1-0.1,0.1-0.2,0.2-0.3h0.3v3.4
		h-0.2c-0.1-0.4-0.3-0.8-0.5-1.2c-0.2-0.4-0.4-0.8-0.6-1.1c-0.3-0.3-0.6-0.6-1-0.8c-0.4-0.2-0.9-0.3-1.5-0.3c-0.5,0-0.9,0.1-1.3,0.2
		c-0.4,0.1-0.7,0.3-0.9,0.5s-0.4,0.5-0.6,0.7c-0.1,0.3-0.2,0.5-0.2,0.8c0,0.4,0.1,0.8,0.3,1c0.2,0.3,0.5,0.5,0.9,0.7
		c0.4,0.2,0.8,0.4,1.2,0.5s0.9,0.3,1.4,0.5c0.5,0.2,1,0.3,1.4,0.5c0.5,0.2,0.9,0.4,1.2,0.7s0.7,0.6,0.9,1c0.2,0.4,0.3,0.9,0.3,1.5
		c0,0.6-0.1,1.1-0.4,1.7c-0.2,0.5-0.6,1-1,1.4c-0.4,0.4-1,0.7-1.6,0.9c-0.6,0.2-1.3,0.4-2,0.4c-0.4,0-0.7,0-1.1-0.1
		c-0.4-0.1-0.7-0.1-1-0.2s-0.6-0.2-0.8-0.2c-0.2-0.1-0.4-0.1-0.5-0.1c-0.2,0-0.3,0-0.4,0.1c-0.1,0.1-0.1,0.2-0.2,0.3h-0.3v-4H33.4z"
		/>
</g>
<g class="st1">
	<path class="st2" d="M52.8,30.5l8.6-21.1h0.8l9.1,21.1h2.5v0.4h-9.7v-0.4h2.7l-3.4-7.8h-7l-3.2,7.8h2.6v0.4h-5.5v-0.4H52.8z
		 M56.6,22.3h6.7l-3.4-7.9L56.6,22.3z"/>
</g>
<g class="st1">
	<path class="st2" d="M80.3,11.7v0.3h-1.8v9c0,0.6,0,1.2,0.1,1.8c0.1,0.6,0.2,1.1,0.4,1.6c0.2,0.5,0.5,0.8,1,1.1
		c0.4,0.3,1,0.4,1.8,0.4c0.7,0,1.3-0.1,1.8-0.2c0.5-0.2,0.9-0.4,1.2-0.7c0.3-0.3,0.6-0.6,0.7-0.9s0.3-0.7,0.4-1
		c0.1-0.3,0.1-0.7,0.1-1c0-0.3,0-0.6,0-0.8v-9.4h-1.8v-0.3h4v0.3h-1.9v9.4c0,0.2,0,0.5,0,0.8c0,0.3-0.1,0.7-0.2,1
		c-0.1,0.4-0.2,0.7-0.4,1.1c-0.2,0.4-0.5,0.7-0.8,1c-0.4,0.3-0.8,0.5-1.4,0.7c-0.5,0.2-1.2,0.3-2,0.3c-1.3,0-2.3-0.1-3.1-0.4
		c-0.8-0.3-1.4-0.7-1.8-1.1c-0.4-0.5-0.7-1-0.8-1.6c-0.1-0.6-0.2-1.2-0.2-1.8v-9.3h-1.9v-0.3H80.3z"/>
</g>
<g class="st1">
	<path class="st2" d="M95.3,7.1c-0.7,0-1.3,0.1-1.8,0.2c-0.5,0.1-1,0.4-1.4,0.7S91.3,8.8,91,9.4c-0.3,0.6-0.6,1.3-0.9,2.3h-0.4V6.7
		h16.9v4.9h-0.4c-0.3-0.9-0.6-1.7-0.9-2.3c-0.3-0.6-0.7-1.1-1.1-1.4s-0.9-0.6-1.4-0.7s-1.1-0.2-1.8-0.2h-1v18.5h2.5v0.4h-8.9v-0.4
		h2.5V7.1H95.3z"/>
</g>
<g class="st1">
	<path class="st2" d="M108.3,15.3v-0.3h2.7c0.5,0,1,0,1.5,0c0.5,0,1,0,1.5,0c0.5,0,1,0,1.5,0.1c0.5,0.1,1,0.3,1.4,0.5
		c0.4,0.2,0.8,0.5,1.1,0.9c0.3,0.4,0.4,0.9,0.4,1.5c0,0.5-0.1,0.9-0.3,1.2c-0.2,0.3-0.5,0.6-0.8,0.8c-0.3,0.2-0.7,0.4-1.1,0.5
		c-0.4,0.1-0.8,0.2-1.2,0.2V21c0.6,0.1,1.1,0.2,1.6,0.3c0.5,0.1,0.9,0.3,1.2,0.5c0.3,0.2,0.6,0.5,0.8,0.9c0.2,0.4,0.3,0.9,0.4,1.5
		c0.1,0.8,0.1,1.4,0.1,1.8c0,0.5,0.1,0.8,0.2,1.1c0.1,0.3,0.2,0.4,0.3,0.5c0.1,0.1,0.3,0.1,0.5,0.1c0.2,0,0.4-0.1,0.6-0.2
		c0.2-0.1,0.3-0.3,0.4-0.4l0.2,0.2c-0.1,0.1-0.2,0.2-0.4,0.3c-0.1,0.1-0.2,0.2-0.4,0.3c-0.2,0.1-0.3,0.1-0.5,0.2
		c-0.2,0-0.5,0.1-0.8,0.1c-0.7,0-1.2-0.1-1.5-0.3c-0.4-0.2-0.6-0.5-0.8-0.8c-0.2-0.3-0.3-0.7-0.3-1c0-0.4-0.1-0.7-0.1-1
		c0-0.5-0.1-1-0.1-1.4s-0.1-0.9-0.3-1.2c-0.2-0.4-0.4-0.6-0.7-0.9c-0.3-0.2-0.8-0.3-1.3-0.3h-1.2v6.5h1.7v0.3h-5.9v-0.3h1.7V15.3
		H108.3z M113.3,20.9c0.5,0,1-0.1,1.3-0.2c0.3-0.1,0.5-0.3,0.7-0.6c0.2-0.2,0.3-0.5,0.3-0.8c0-0.3,0.1-0.6,0.1-1c0-0.5,0-1-0.1-1.4
		c-0.1-0.4-0.2-0.7-0.4-0.9s-0.4-0.4-0.7-0.5c-0.3-0.1-0.7-0.2-1.1-0.2c-0.1,0-0.3,0-0.4,0c-0.1,0-0.3,0-0.4,0v5.6H113.3z"/>
</g>
<g class="st1">
	<path class="st2" d="M127.5,12.4v0.3h-1.7v8.5c0,0.6,0,1.2,0.1,1.7c0.1,0.6,0.2,1.1,0.4,1.5c0.2,0.4,0.5,0.8,0.9,1.1
		c0.4,0.3,1,0.4,1.7,0.4c0.7,0,1.3-0.1,1.7-0.2c0.5-0.2,0.8-0.4,1.1-0.6c0.3-0.3,0.5-0.6,0.7-0.9c0.2-0.3,0.3-0.6,0.4-1
		c0.1-0.3,0.1-0.6,0.1-0.9c0-0.3,0-0.5,0-0.7v-8.9h-1.7v-0.3h3.8v0.3h-1.8v8.9c0,0.2,0,0.5,0,0.8c0,0.3-0.1,0.6-0.2,1
		c-0.1,0.3-0.2,0.7-0.4,1c-0.2,0.3-0.4,0.6-0.8,0.9c-0.3,0.3-0.8,0.5-1.3,0.7c-0.5,0.2-1.2,0.3-1.9,0.3c-1.2,0-2.2-0.1-3-0.4
		c-0.7-0.3-1.3-0.6-1.7-1.1c-0.4-0.4-0.7-0.9-0.8-1.5c-0.1-0.6-0.2-1.1-0.2-1.7v-8.9h-1.8v-0.3H127.5z"/>
</g>
<g class="st1">
	<path class="st2" d="M152.9,17.2c-0.2-0.6-0.4-1.2-0.7-1.9c-0.3-0.7-0.6-1.3-1.1-1.8c-0.4-0.5-1-1-1.6-1.4
		c-0.7-0.4-1.5-0.5-2.4-0.5c-1.3,0-2.3,0.2-3.1,0.7c-0.8,0.5-1.3,1.2-1.7,2c-0.4,0.9-0.6,1.9-0.7,3.1c-0.1,1.2-0.2,2.5-0.2,3.9
		c0,1.9,0.1,3.4,0.3,4.6c0.2,1.2,0.6,2.2,1,2.9c0.5,0.7,1.1,1.2,1.8,1.5c0.7,0.3,1.6,0.4,2.6,0.4c0.8,0,1.5-0.2,2.2-0.5
		c0.7-0.3,1.2-0.8,1.7-1.3c0.5-0.5,0.9-1.1,1.3-1.8c0.3-0.7,0.6-1.4,0.8-2.1h0.4v5.7h-0.4c-0.1-0.2-0.2-0.4-0.3-0.4
		c-0.1-0.1-0.3-0.1-0.6-0.1c-0.2,0-0.5,0-0.8,0.1c-0.3,0.1-0.7,0.2-1.2,0.3c-0.4,0.1-0.9,0.2-1.4,0.3c-0.5,0.1-1.1,0.1-1.6,0.1
		c-1.3,0-2.6-0.3-3.8-0.8c-1.2-0.5-2.3-1.2-3.2-2.1c-0.9-0.9-1.7-1.9-2.2-3.1s-0.8-2.5-0.8-3.9c0-1.5,0.3-2.9,0.9-4.2
		s1.4-2.3,2.4-3.2c1-0.9,2.1-1.6,3.3-2c1.2-0.5,2.4-0.7,3.5-0.7c0.6,0,1.1,0.1,1.6,0.2c0.5,0.1,1,0.2,1.4,0.3
		c0.4,0.1,0.8,0.2,1.1,0.3c0.3,0.1,0.6,0.2,0.9,0.2c0.3,0,0.4,0,0.6-0.1c0.1-0.1,0.2-0.2,0.3-0.5h0.4v5.5H152.9z"/>
</g>
<g class="st1">
	<path class="st2" d="M161.2,13.8V14h-1.6v5.6h4.9V14h-1.6v-0.2h5.6V14H167v11.6h1.6v0.2h-5.6v-0.2h1.6v-5.8h-4.9v5.8h1.6v0.2h-5.6
		v-0.2h1.6V14h-1.6v-0.2H161.2z"/>
</g>
<g class="st1">
	<path class="st2" d="M181.9,11.7v3.4h-0.3c-0.1-0.2-0.2-0.5-0.3-0.9c-0.2-0.4-0.4-0.7-0.7-1s-0.7-0.6-1.1-0.9s-1-0.4-1.7-0.4h-3.2
		v6.2h1.1c0.5,0,0.9-0.1,1.2-0.2c0.3-0.1,0.6-0.3,0.9-0.6c0.2-0.3,0.4-0.6,0.6-0.9c0.1-0.4,0.3-0.8,0.4-1.2h0.3v6.2h-0.3
		c-0.1-0.4-0.2-0.8-0.3-1.1c-0.1-0.4-0.3-0.7-0.5-1c-0.2-0.3-0.5-0.5-0.8-0.6c-0.3-0.2-0.7-0.2-1.2-0.2h-1.3v7.2h3.3
		c0.6,0,1.2-0.1,1.7-0.3s0.9-0.5,1.3-0.9s0.7-0.8,1-1.3s0.4-1,0.6-1.6h0.3v4.4h-12.8v-0.3h1.8V11.9h-1.8v-0.3H181.9z"/>
</g>
<g class="st1">
	<path class="st2" d="M185.3,24c0,0.2,0.1,0.4,0.2,0.7c0.1,0.3,0.2,0.6,0.3,0.9s0.3,0.7,0.5,1c0.2,0.3,0.5,0.7,0.8,1
		c0.3,0.3,0.7,0.6,1,0.8c0.3,0.2,0.6,0.3,0.9,0.4c0.3,0.1,0.6,0.1,0.8,0.1c0.3,0,0.5,0,0.7,0c0.8,0,1.4-0.1,1.9-0.4
		c0.5-0.2,0.9-0.5,1.2-0.9c0.3-0.4,0.5-0.7,0.6-1.1s0.2-0.7,0.2-1c0-0.5-0.1-1-0.4-1.3c-0.3-0.4-0.6-0.6-1-0.9
		c-0.4-0.2-0.9-0.4-1.5-0.6c-0.5-0.2-1.1-0.3-1.7-0.5c-0.6-0.2-1.1-0.4-1.7-0.6c-0.5-0.2-1-0.5-1.5-0.9c-0.4-0.4-0.8-0.8-1-1.3
		s-0.4-1.2-0.4-2c0-0.6,0.1-1.2,0.4-1.7c0.3-0.5,0.6-1,1.1-1.4c0.5-0.4,1-0.8,1.7-1s1.4-0.4,2.1-0.4c0.5,0,0.9,0,1.3,0.1
		c0.4,0.1,0.7,0.2,1,0.3c0.3,0.1,0.5,0.2,0.7,0.3c0.2,0.1,0.4,0.1,0.6,0.1c0.2,0,0.3,0,0.4-0.1c0.1-0.1,0.1-0.2,0.2-0.4h0.4v4.2
		h-0.3c-0.2-0.5-0.4-1-0.6-1.5c-0.2-0.5-0.5-0.9-0.8-1.4c-0.3-0.4-0.7-0.7-1.2-1c-0.5-0.2-1.1-0.4-1.8-0.4c-0.6,0-1.1,0.1-1.6,0.2
		s-0.8,0.4-1.1,0.6c-0.3,0.3-0.5,0.6-0.7,0.9c-0.2,0.3-0.2,0.7-0.2,1c0,0.5,0.1,0.9,0.4,1.3c0.3,0.3,0.6,0.6,1.1,0.9
		c0.4,0.2,0.9,0.5,1.5,0.6c0.6,0.2,1.1,0.4,1.7,0.5s1.2,0.4,1.7,0.6c0.6,0.2,1.1,0.5,1.5,0.9c0.4,0.4,0.8,0.8,1.1,1.3
		c0.3,0.5,0.4,1.1,0.4,1.8c0,0.7-0.1,1.4-0.4,2c-0.3,0.6-0.7,1.2-1.2,1.7c-0.5,0.5-1.2,0.9-1.9,1.2c-0.7,0.3-1.6,0.4-2.5,0.4
		c-0.5,0-0.9,0-1.4-0.1s-0.9-0.2-1.3-0.3c-0.4-0.1-0.7-0.2-1-0.3s-0.5-0.1-0.7-0.1c-0.2,0-0.4,0-0.4,0.1c-0.1,0.1-0.2,0.2-0.2,0.4
		H185V24H185.3z"/>
</g>
<g>
	<path class="st0" d="M-26,37h250v17H-26V37z"/>
</g>
<g class="st3">
	<path class="st2" d="M48.7,43.7l2.2-6.2h0l-4.3,6.3l0.1-6.3h0l-2.2,6.2h1l0,0.1h-2.1l0-0.1h0.9l2.2-6.2h-1l0-0.1h1.9l-0.1,5h0
		l3.4-5h1.9l0,0.1h-0.9l-2.2,6.2h1l0,0.1h-2.8l0-0.1H48.7z"/>
	<path class="st2" d="M54.7,43.2c-0.1,0.1-0.2,0.2-0.3,0.3s-0.3,0.2-0.5,0.3s-0.4,0.1-0.7,0.1s-0.5,0-0.7-0.1
		c-0.2-0.1-0.3-0.2-0.4-0.3s-0.2-0.3-0.2-0.4c-0.1-0.2-0.1-0.3-0.1-0.5c0-0.3,0.1-0.6,0.2-0.9c0.1-0.3,0.3-0.6,0.6-0.9
		c0.2-0.3,0.5-0.5,0.8-0.7c0.3-0.2,0.6-0.3,0.9-0.3c0.1,0,0.2,0,0.4,0S55,40,55.1,40c0.1,0.1,0.2,0.1,0.2,0.2s0.1,0.2,0.1,0.3
		c0,0.2,0,0.3-0.1,0.4c-0.1,0.1-0.2,0.2-0.3,0.3c-0.1,0.1-0.3,0.2-0.5,0.2c-0.2,0.1-0.3,0.1-0.5,0.1c-0.2,0-0.3,0.1-0.4,0.1
		c-0.1,0-0.2,0-0.3,0c-0.1,0-0.2,0-0.3,0c-0.1,0-0.2,0-0.3,0c-0.1,0.2-0.1,0.4-0.2,0.6c0,0.2-0.1,0.4-0.1,0.6c0,0.3,0.1,0.6,0.3,0.7
		c0.2,0.2,0.4,0.2,0.6,0.2c0.2,0,0.4,0,0.5-0.1c0.1-0.1,0.3-0.2,0.4-0.3c0.1-0.1,0.2-0.2,0.3-0.3c0.1-0.1,0.1-0.2,0.2-0.2l0.1,0.1
		C54.8,43,54.8,43.1,54.7,43.2z M54.7,40.1C54.7,40,54.5,40,54.4,40c-0.2,0-0.4,0.1-0.5,0.2c-0.2,0.1-0.3,0.2-0.5,0.4
		c-0.1,0.2-0.3,0.3-0.4,0.5s-0.2,0.4-0.2,0.5c0.1,0,0.3,0,0.5,0c0.2,0,0.4,0,0.6-0.1c0.2-0.1,0.4-0.2,0.5-0.3
		c0.1-0.1,0.3-0.2,0.4-0.4c0.1-0.1,0.1-0.3,0.1-0.5C54.8,40.3,54.8,40.2,54.7,40.1z"/>
	<path class="st2" d="M57.5,40l-1,3c0,0.1-0.1,0.2-0.1,0.3c0,0.1,0,0.2,0,0.2c0,0.1,0,0.2,0.1,0.2c0,0.1,0.1,0.1,0.2,0.1
		c0.2,0,0.3-0.1,0.5-0.2s0.4-0.3,0.6-0.5s0.3-0.4,0.5-0.6c0.1-0.2,0.3-0.5,0.4-0.7l0.6-1.8h0.6L58.8,43c0,0.1-0.1,0.2-0.1,0.3
		c0,0.1,0,0.2,0,0.3c0,0.1,0,0.1,0.1,0.2c0,0.1,0.1,0.1,0.2,0.1c0.1,0,0.2,0,0.3-0.1c0.1-0.1,0.2-0.1,0.3-0.2
		c0.1-0.1,0.1-0.2,0.2-0.3c0.1-0.1,0.1-0.2,0.1-0.2l0.1,0c0,0-0.1,0.1-0.1,0.2c-0.1,0.1-0.1,0.2-0.2,0.3c-0.1,0.1-0.2,0.2-0.3,0.3
		c-0.1,0.1-0.3,0.1-0.5,0.1c-0.2,0-0.4,0-0.5-0.1c-0.1-0.1-0.2-0.2-0.2-0.4c0-0.1,0-0.2,0-0.3c0-0.1,0.1-0.2,0.1-0.3l0,0
		c-0.1,0.1-0.2,0.2-0.3,0.4c-0.1,0.1-0.2,0.3-0.4,0.4c-0.1,0.1-0.3,0.2-0.4,0.3s-0.3,0.1-0.5,0.1c-0.3,0-0.5-0.1-0.6-0.2
		s-0.2-0.3-0.2-0.5c0-0.1,0-0.2,0.1-0.3s0.1-0.2,0.1-0.3l0.9-2.5h-0.8l0-0.1H57.5z"/>
	<path class="st2" d="M61.8,40.9L61.8,40.9c0.1-0.1,0.2-0.2,0.3-0.4s0.2-0.2,0.3-0.3c0.1-0.1,0.3-0.2,0.4-0.3
		c0.1-0.1,0.3-0.1,0.5-0.1c0.2,0,0.3,0,0.5,0.1c0.1,0.1,0.3,0.2,0.4,0.3c0.1,0.1,0.2,0.2,0.2,0.4c0,0.1,0.1,0.3,0.1,0.4
		c0,0.2,0,0.5-0.1,0.7c-0.1,0.2-0.2,0.5-0.4,0.7c-0.1,0.2-0.3,0.4-0.5,0.6c-0.2,0.2-0.4,0.3-0.6,0.5c-0.2,0.1-0.4,0.2-0.6,0.3
		c-0.2,0.1-0.4,0.1-0.6,0.1c-0.1,0-0.2,0-0.4-0.1c-0.1,0-0.2-0.1-0.3-0.2s-0.2-0.2-0.3-0.3s-0.1-0.3-0.1-0.5c0-0.1,0-0.3,0.1-0.4
		s0.1-0.3,0.1-0.4l1.8-4.9h-0.8l0-0.1h1.4L61.8,40.9z M61.6,43.8c0.2,0,0.4-0.1,0.5-0.2c0.2-0.1,0.4-0.3,0.5-0.4
		c0.2-0.2,0.3-0.4,0.5-0.6c0.1-0.2,0.3-0.5,0.4-0.7c0.1-0.2,0.2-0.5,0.2-0.7c0.1-0.2,0.1-0.5,0.1-0.6c0-0.2-0.1-0.3-0.2-0.4
		S63.4,40,63.2,40c-0.2,0-0.3,0.1-0.5,0.2c-0.2,0.1-0.3,0.2-0.5,0.4c-0.2,0.2-0.3,0.4-0.5,0.6s-0.3,0.5-0.4,0.7
		c-0.1,0.2-0.2,0.5-0.3,0.7s-0.1,0.5-0.1,0.7C61.1,43.6,61.2,43.8,61.6,43.8z"/>
	<path class="st2" d="M65.8,43c0,0.1-0.1,0.2-0.1,0.3c0,0.1,0,0.2,0,0.3c0,0.1,0,0.1,0.1,0.2c0,0.1,0.1,0.1,0.2,0.1
		c0.1,0,0.2,0,0.3-0.1c0.1-0.1,0.2-0.1,0.3-0.2c0.1-0.1,0.1-0.2,0.2-0.3c0.1-0.1,0.1-0.2,0.1-0.2l0.1,0c0,0-0.1,0.1-0.1,0.2
		c-0.1,0.1-0.1,0.2-0.2,0.3c-0.1,0.1-0.2,0.2-0.3,0.3c-0.1,0.1-0.3,0.1-0.5,0.1c-0.2,0-0.4,0-0.5-0.1c-0.1-0.1-0.2-0.2-0.2-0.4
		c0-0.1,0-0.2,0.1-0.3c0-0.1,0.1-0.2,0.1-0.3l2-5.6h-0.8l0-0.1H68L65.8,43z"/>
	<path class="st2" d="M70.4,43.2c-0.1,0.1-0.2,0.2-0.3,0.3s-0.3,0.2-0.5,0.3s-0.4,0.1-0.7,0.1s-0.5,0-0.7-0.1
		c-0.2-0.1-0.3-0.2-0.4-0.3s-0.2-0.3-0.2-0.4c-0.1-0.2-0.1-0.3-0.1-0.5c0-0.3,0.1-0.6,0.2-0.9c0.1-0.3,0.3-0.6,0.6-0.9
		c0.2-0.3,0.5-0.5,0.8-0.7c0.3-0.2,0.6-0.3,0.9-0.3c0.1,0,0.2,0,0.4,0s0.2,0.1,0.3,0.1c0.1,0.1,0.2,0.1,0.2,0.2s0.1,0.2,0.1,0.3
		c0,0.2,0,0.3-0.1,0.4c-0.1,0.1-0.2,0.2-0.3,0.3c-0.1,0.1-0.3,0.2-0.5,0.2c-0.2,0.1-0.3,0.1-0.5,0.1c-0.2,0-0.3,0.1-0.4,0.1
		c-0.1,0-0.2,0-0.3,0c-0.1,0-0.2,0-0.3,0c-0.1,0-0.2,0-0.3,0c-0.1,0.2-0.1,0.4-0.2,0.6c0,0.2-0.1,0.4-0.1,0.6c0,0.3,0.1,0.6,0.3,0.7
		c0.2,0.2,0.4,0.2,0.6,0.2c0.2,0,0.4,0,0.5-0.1c0.1-0.1,0.3-0.2,0.4-0.3c0.1-0.1,0.2-0.2,0.3-0.3c0.1-0.1,0.1-0.2,0.2-0.2l0.1,0.1
		C70.5,43,70.4,43.1,70.4,43.2z M70.4,40.1C70.3,40,70.2,40,70,40c-0.2,0-0.4,0.1-0.5,0.2c-0.2,0.1-0.3,0.2-0.5,0.4
		c-0.1,0.2-0.3,0.3-0.4,0.5s-0.2,0.4-0.2,0.5c0.1,0,0.3,0,0.5,0c0.2,0,0.4,0,0.6-0.1c0.2-0.1,0.4-0.2,0.5-0.3
		c0.1-0.1,0.3-0.2,0.4-0.4c0.1-0.1,0.1-0.3,0.1-0.5C70.5,40.3,70.5,40.2,70.4,40.1z"/>
	<path class="st2" d="M72,41.5c-0.1-0.1-0.1-0.3-0.1-0.4c0-0.1,0-0.3,0.1-0.4c0.1-0.1,0.2-0.3,0.3-0.4c0.1-0.1,0.3-0.2,0.5-0.3
		c0.2-0.1,0.4-0.1,0.6-0.1c0.3,0,0.5,0.1,0.6,0.2c0.2,0.1,0.2,0.3,0.2,0.4c0,0.3-0.1,0.4-0.4,0.4c-0.1,0-0.2,0-0.2-0.1
		s-0.1-0.1-0.1-0.2c0-0.1,0-0.1,0.1-0.2s0.1-0.1,0.1-0.1c0-0.2-0.1-0.2-0.3-0.2c-0.1,0-0.3,0-0.4,0.1s-0.2,0.1-0.3,0.2
		s-0.1,0.2-0.2,0.2c0,0.1,0,0.2,0,0.3c0,0.1,0,0.2,0.1,0.3c0.1,0.1,0.1,0.2,0.3,0.4l0.5,0.7c0.1,0.1,0.1,0.2,0.1,0.3
		c0,0.1,0,0.2,0,0.3c0,0.2-0.1,0.4-0.2,0.5c-0.1,0.2-0.2,0.3-0.4,0.4c-0.2,0.1-0.3,0.2-0.5,0.2c-0.2,0.1-0.3,0.1-0.5,0.1
		c-0.1,0-0.3,0-0.4,0c-0.1,0-0.2-0.1-0.3-0.1s-0.2-0.1-0.2-0.2C71,43.5,71,43.4,71,43.3c0-0.1,0-0.2,0.1-0.3
		c0.1-0.1,0.2-0.1,0.3-0.1c0.1,0,0.1,0,0.1,0.1s0.1,0.1,0.1,0.1c0,0.1,0,0.1,0,0.2c0,0.1,0,0.1,0,0.2c0,0.1,0,0.2,0.1,0.3
		c0.1,0.1,0.2,0.1,0.4,0.1s0.3,0,0.4-0.1c0.1,0,0.2-0.1,0.3-0.2c0.1-0.1,0.1-0.2,0.2-0.2c0-0.1,0.1-0.2,0.1-0.3c0-0.1,0-0.2-0.1-0.3
		s-0.1-0.2-0.2-0.3l-0.5-0.6C72.2,41.7,72.1,41.6,72,41.5z"/>
	<path class="st2" d="M76.9,43.2c0.1-0.1,0.2-0.1,0.3-0.1s0.2,0,0.3,0.1s0.1,0.2,0.1,0.3s0,0.2-0.1,0.3s-0.2,0.1-0.3,0.1
		s-0.2,0-0.3-0.1c-0.1-0.1-0.1-0.2-0.1-0.3S76.8,43.3,76.9,43.2z"/>
	<path class="st2" d="M81.6,40.4c0.1-0.3,0.3-0.7,0.4-1c0.2-0.3,0.4-0.6,0.7-0.8s0.5-0.5,0.8-0.7c0.3-0.2,0.6-0.3,0.9-0.4
		c0.3-0.1,0.6-0.2,0.9-0.2c0.4,0,0.7,0.1,1,0.2c0.3,0.2,0.5,0.4,0.6,0.6s0.3,0.5,0.4,0.8c0.1,0.3,0.1,0.6,0.1,0.9c0,0.3,0,0.6-0.1,1
		c-0.1,0.3-0.2,0.6-0.4,0.9c-0.2,0.3-0.4,0.6-0.6,0.8s-0.5,0.5-0.8,0.7c-0.3,0.2-0.6,0.3-0.9,0.5c-0.3,0.1-0.6,0.2-1,0.2
		c-0.3,0-0.6-0.1-0.8-0.2c-0.3-0.1-0.5-0.3-0.6-0.5c-0.2-0.2-0.3-0.5-0.4-0.8c-0.1-0.3-0.2-0.7-0.2-1.1C81.4,41,81.4,40.7,81.6,40.4
		z M82.1,43c0,0.2,0.1,0.3,0.2,0.5c0.1,0.1,0.3,0.2,0.4,0.3c0.2,0.1,0.4,0.1,0.7,0.1c0.4,0,0.7-0.1,1-0.3c0.3-0.2,0.6-0.4,0.8-0.7
		s0.4-0.6,0.6-1c0.2-0.4,0.3-0.7,0.4-1.1c0.1-0.4,0.2-0.7,0.3-1c0.1-0.3,0.1-0.6,0.1-0.8c0-0.5-0.1-0.8-0.3-1.1
		c-0.2-0.3-0.6-0.4-1.1-0.4c-0.3,0-0.6,0.1-0.9,0.3s-0.5,0.4-0.8,0.7s-0.4,0.6-0.6,1c-0.2,0.4-0.3,0.7-0.5,1.1
		c-0.1,0.4-0.2,0.7-0.3,1.1s-0.1,0.7-0.1,0.9C82.1,42.6,82.1,42.8,82.1,43z"/>
	<path class="st2" d="M89.3,40.9L89.3,40.9c0.1-0.1,0.2-0.2,0.3-0.4s0.2-0.2,0.3-0.3c0.1-0.1,0.3-0.2,0.4-0.3
		c0.1-0.1,0.3-0.1,0.5-0.1c0.2,0,0.3,0,0.5,0.1c0.1,0.1,0.3,0.2,0.4,0.3c0.1,0.1,0.2,0.2,0.2,0.4c0,0.1,0.1,0.3,0.1,0.4
		c0,0.2,0,0.5-0.1,0.7c-0.1,0.2-0.2,0.5-0.4,0.7c-0.1,0.2-0.3,0.4-0.5,0.6c-0.2,0.2-0.4,0.3-0.6,0.5c-0.2,0.1-0.4,0.2-0.6,0.3
		c-0.2,0.1-0.4,0.1-0.6,0.1c-0.1,0-0.2,0-0.4-0.1c-0.1,0-0.2-0.1-0.3-0.2s-0.2-0.2-0.3-0.3s-0.1-0.3-0.1-0.5c0-0.1,0-0.3,0.1-0.4
		s0.1-0.3,0.1-0.4l1.8-4.9h-0.8l0-0.1h1.4L89.3,40.9z M89.1,43.8c0.2,0,0.4-0.1,0.5-0.2c0.2-0.1,0.4-0.3,0.5-0.4
		c0.2-0.2,0.3-0.4,0.5-0.6c0.1-0.2,0.3-0.5,0.4-0.7c0.1-0.2,0.2-0.5,0.2-0.7c0.1-0.2,0.1-0.5,0.1-0.6c0-0.2-0.1-0.3-0.2-0.4
		S90.9,40,90.8,40c-0.2,0-0.3,0.1-0.5,0.2c-0.2,0.1-0.3,0.2-0.5,0.4c-0.2,0.2-0.3,0.4-0.5,0.6s-0.3,0.5-0.4,0.7
		c-0.1,0.2-0.2,0.5-0.3,0.7s-0.1,0.5-0.1,0.7C88.6,43.6,88.7,43.8,89.1,43.8z"/>
	<path class="st2" d="M93.1,43.9c0,0.1-0.1,0.2-0.1,0.4c-0.1,0.1-0.1,0.3-0.2,0.5c-0.1,0.2-0.2,0.3-0.3,0.5
		c-0.1,0.2-0.2,0.3-0.4,0.4c-0.1,0.1-0.3,0.2-0.4,0.3c-0.2,0.1-0.3,0.1-0.5,0.1c-0.1,0-0.2,0-0.3,0c-0.1,0-0.2-0.1-0.2-0.1
		c-0.1-0.1-0.1-0.1-0.2-0.2c0-0.1-0.1-0.2-0.1-0.3c0-0.1,0-0.2,0.1-0.3c0.1-0.1,0.2-0.1,0.3-0.1c0.1,0,0.2,0,0.2,0.1
		s0.1,0.1,0.1,0.2c0,0.1,0,0.2-0.1,0.2c0,0-0.1,0.1-0.1,0.2c0,0.1,0,0.1,0.1,0.2s0.1,0.1,0.2,0.1c0.3,0,0.6-0.4,0.9-1.2l1.7-4.7
		h-0.8l0-0.1h1.4L93.1,43.9z M94.6,37.6c0.1-0.1,0.2-0.1,0.3-0.1s0.2,0,0.3,0.1s0.1,0.2,0.1,0.3c0,0.1,0,0.2-0.1,0.3
		s-0.2,0.1-0.3,0.1s-0.2,0-0.3-0.1s-0.1-0.2-0.1-0.3C94.4,37.7,94.5,37.6,94.6,37.6z"/>
	<path class="st2" d="M97.9,43.2c-0.1,0.1-0.2,0.2-0.3,0.3s-0.3,0.2-0.5,0.3s-0.4,0.1-0.7,0.1s-0.5,0-0.7-0.1
		c-0.2-0.1-0.3-0.2-0.4-0.3s-0.2-0.3-0.2-0.4c-0.1-0.2-0.1-0.3-0.1-0.5c0-0.3,0.1-0.6,0.2-0.9c0.1-0.3,0.3-0.6,0.6-0.9
		c0.2-0.3,0.5-0.5,0.8-0.7c0.3-0.2,0.6-0.3,0.9-0.3c0.1,0,0.2,0,0.4,0s0.2,0.1,0.3,0.1c0.1,0.1,0.2,0.1,0.2,0.2s0.1,0.2,0.1,0.3
		c0,0.2,0,0.3-0.1,0.4c-0.1,0.1-0.2,0.2-0.3,0.3c-0.1,0.1-0.3,0.2-0.5,0.2c-0.2,0.1-0.3,0.1-0.5,0.1c-0.2,0-0.3,0.1-0.4,0.1
		c-0.1,0-0.2,0-0.3,0c-0.1,0-0.2,0-0.3,0c-0.1,0-0.2,0-0.3,0c-0.1,0.2-0.1,0.4-0.2,0.6c0,0.2-0.1,0.4-0.1,0.6c0,0.3,0.1,0.6,0.3,0.7
		c0.2,0.2,0.4,0.2,0.6,0.2c0.2,0,0.4,0,0.5-0.1c0.1-0.1,0.3-0.2,0.4-0.3c0.1-0.1,0.2-0.2,0.3-0.3c0.1-0.1,0.1-0.2,0.2-0.2L98,43
		C98,43,97.9,43.1,97.9,43.2z M97.9,40.1C97.8,40,97.7,40,97.5,40c-0.2,0-0.4,0.1-0.5,0.2c-0.2,0.1-0.3,0.2-0.5,0.4
		c-0.1,0.2-0.3,0.3-0.4,0.5S96,41.4,96,41.6c0.1,0,0.3,0,0.5,0c0.2,0,0.4,0,0.6-0.1c0.2-0.1,0.4-0.2,0.5-0.3
		c0.1-0.1,0.3-0.2,0.4-0.4c0.1-0.1,0.1-0.3,0.1-0.5C98,40.3,98,40.2,97.9,40.1z"/>
	<path class="st2" d="M101.1,39.1l-0.3,0.9h1l0,0.1h-1l-1,2.9c0,0.1-0.1,0.2-0.1,0.3c0,0.1,0,0.2,0,0.3c0,0.1,0,0.2,0.1,0.2
		s0.1,0.1,0.2,0.1c0.1,0,0.2,0,0.3-0.1c0.1-0.1,0.2-0.1,0.3-0.2c0.1-0.1,0.1-0.2,0.2-0.3c0.1-0.1,0.1-0.2,0.1-0.2l0.1,0
		c0,0-0.1,0.1-0.1,0.2c-0.1,0.1-0.1,0.2-0.2,0.3c-0.1,0.1-0.2,0.2-0.3,0.3s-0.3,0.1-0.5,0.1c-0.2,0-0.4-0.1-0.5-0.2
		C99,43.7,99,43.5,99,43.4c0-0.1,0-0.3,0.1-0.4c0-0.2,0.1-0.3,0.1-0.4l0.9-2.4h-0.8l0-0.1h0.8l0.3-0.9H101.1z"/>
	<path class="st2" d="M102.2,41.5c-0.1-0.1-0.1-0.3-0.1-0.4c0-0.1,0-0.3,0.1-0.4c0.1-0.1,0.2-0.3,0.3-0.4c0.1-0.1,0.3-0.2,0.5-0.3
		c0.2-0.1,0.4-0.1,0.6-0.1c0.3,0,0.5,0.1,0.6,0.2s0.2,0.3,0.2,0.4c0,0.3-0.1,0.4-0.4,0.4c-0.1,0-0.2,0-0.2-0.1
		c-0.1,0-0.1-0.1-0.1-0.2c0-0.1,0-0.1,0.1-0.2s0.1-0.1,0.1-0.1c0-0.2-0.1-0.2-0.3-0.2c-0.1,0-0.3,0-0.4,0.1c-0.1,0-0.2,0.1-0.3,0.2
		c-0.1,0.1-0.1,0.2-0.2,0.2c0,0.1,0,0.2,0,0.3c0,0.1,0,0.2,0.1,0.3c0.1,0.1,0.1,0.2,0.3,0.4l0.5,0.7c0.1,0.1,0.1,0.2,0.1,0.3
		c0,0.1,0,0.2,0,0.3c0,0.2-0.1,0.4-0.2,0.5c-0.1,0.2-0.2,0.3-0.4,0.4c-0.2,0.1-0.3,0.2-0.5,0.2s-0.3,0.1-0.5,0.1c-0.1,0-0.3,0-0.4,0
		c-0.1,0-0.2-0.1-0.3-0.1c-0.1-0.1-0.2-0.1-0.2-0.2c-0.1-0.1-0.1-0.2-0.1-0.3c0-0.1,0-0.2,0.1-0.3s0.2-0.1,0.3-0.1
		c0.1,0,0.1,0,0.1,0.1s0.1,0.1,0.1,0.1c0,0.1,0,0.1,0,0.2c0,0.1,0,0.1,0,0.2c0,0.1,0,0.2,0.1,0.3c0.1,0.1,0.2,0.1,0.4,0.1
		c0.2,0,0.3,0,0.4-0.1c0.1,0,0.2-0.1,0.3-0.2c0.1-0.1,0.1-0.2,0.2-0.2c0-0.1,0.1-0.2,0.1-0.3c0-0.1,0-0.2-0.1-0.3s-0.1-0.2-0.2-0.3
		l-0.5-0.6C102.4,41.7,102.3,41.6,102.2,41.5z"/>
	<path class="st2" d="M107,43.2c0.1-0.1,0.2-0.1,0.3-0.1s0.2,0,0.3,0.1s0.1,0.2,0.1,0.3s0,0.2-0.1,0.3s-0.2,0.1-0.3,0.1
		s-0.2,0-0.3-0.1c-0.1-0.1-0.1-0.2-0.1-0.3S106.9,43.3,107,43.2z"/>
	<path class="st2" d="M112.4,37.6l0-0.1h2.7c0.4,0,0.8,0.1,1.1,0.2c0.3,0.1,0.6,0.3,0.8,0.5c0.2,0.2,0.3,0.5,0.4,0.8
		c0.1,0.3,0.1,0.6,0.1,0.9c0,0.5-0.1,1-0.3,1.4c-0.2,0.5-0.5,0.9-0.9,1.3s-0.8,0.7-1.4,0.9c-0.5,0.2-1.1,0.4-1.7,0.4
		c-0.1,0-0.3,0-0.4,0s-0.3,0-0.4,0c-0.1,0-0.3,0-0.4,0s-0.3,0-0.4,0h-1.5l0-0.1h0.9l2.2-6.2H112.4z M112.6,43.7c0.2,0,0.4,0,0.5,0
		c0.2,0,0.3,0,0.4,0s0.3,0,0.4-0.1c0.1,0,0.3-0.1,0.4-0.1c0.1-0.1,0.3-0.1,0.4-0.2c0.3-0.2,0.6-0.5,0.9-0.8c0.3-0.3,0.5-0.6,0.7-1
		c0.2-0.4,0.3-0.8,0.4-1.2c0.1-0.4,0.1-0.8,0.1-1.2c0-0.3-0.1-0.6-0.2-0.9c-0.1-0.2-0.3-0.4-0.5-0.5c-0.1-0.1-0.3-0.1-0.5-0.2
		c-0.2,0-0.4-0.1-0.7-0.1h-0.8l-2.2,6.1C112.2,43.7,112.4,43.7,112.6,43.7z"/>
	<path class="st2" d="M121,43.2c-0.1,0.1-0.2,0.2-0.3,0.3s-0.3,0.2-0.5,0.3c-0.2,0.1-0.4,0.1-0.7,0.1s-0.5,0-0.7-0.1
		s-0.3-0.2-0.4-0.3c-0.1-0.1-0.2-0.3-0.2-0.4s-0.1-0.3-0.1-0.5c0-0.3,0.1-0.6,0.2-0.9c0.1-0.3,0.3-0.6,0.6-0.9
		c0.2-0.3,0.5-0.5,0.8-0.7s0.6-0.3,0.9-0.3c0.1,0,0.2,0,0.4,0s0.2,0.1,0.3,0.1c0.1,0.1,0.2,0.1,0.2,0.2c0.1,0.1,0.1,0.2,0.1,0.3
		c0,0.2,0,0.3-0.1,0.4c-0.1,0.1-0.2,0.2-0.3,0.3s-0.3,0.2-0.5,0.2c-0.2,0.1-0.3,0.1-0.5,0.1c-0.2,0-0.3,0.1-0.4,0.1
		c-0.1,0-0.2,0-0.3,0c-0.1,0-0.2,0-0.3,0c-0.1,0-0.2,0-0.3,0c-0.1,0.2-0.1,0.4-0.2,0.6c0,0.2-0.1,0.4-0.1,0.6c0,0.3,0.1,0.6,0.3,0.7
		c0.2,0.2,0.4,0.2,0.6,0.2c0.2,0,0.4,0,0.5-0.1c0.1-0.1,0.3-0.2,0.4-0.3c0.1-0.1,0.2-0.2,0.3-0.3c0.1-0.1,0.1-0.2,0.2-0.2l0.1,0.1
		C121.2,43,121.1,43.1,121,43.2z M121.1,40.1c-0.1-0.1-0.2-0.1-0.4-0.1c-0.2,0-0.4,0.1-0.5,0.2c-0.2,0.1-0.3,0.2-0.5,0.4
		c-0.1,0.2-0.3,0.3-0.4,0.5c-0.1,0.2-0.2,0.4-0.2,0.5c0.1,0,0.3,0,0.5,0c0.2,0,0.4,0,0.6-0.1c0.2-0.1,0.4-0.2,0.5-0.3
		c0.1-0.1,0.3-0.2,0.4-0.4c0.1-0.1,0.1-0.3,0.1-0.5C121.2,40.3,121.1,40.2,121.1,40.1z M121.8,37.4c0.1-0.1,0.1-0.1,0.2-0.1
		s0.1,0,0.2,0.1c0.1,0,0.1,0.1,0.1,0.2c0,0.1,0,0.1-0.1,0.2c0,0.1-0.2,0.1-0.3,0.2l-1.4,0.8h-0.1l1.2-1.3
		C121.6,37.5,121.7,37.5,121.8,37.4z"/>
	<path class="st2" d="M124.9,43.3c-0.1,0.1-0.2,0.2-0.3,0.3c-0.1,0.1-0.3,0.2-0.4,0.2c-0.2,0.1-0.4,0.1-0.6,0.1
		c-0.2,0-0.4,0-0.6-0.1c-0.2-0.1-0.3-0.2-0.4-0.3c-0.1-0.1-0.2-0.3-0.3-0.4c-0.1-0.2-0.1-0.3-0.1-0.5c0-0.3,0.1-0.6,0.2-0.9
		c0.1-0.3,0.3-0.6,0.6-0.9c0.2-0.3,0.5-0.5,0.8-0.7c0.3-0.2,0.6-0.3,1-0.3c0.1,0,0.2,0,0.3,0c0.1,0,0.2,0.1,0.3,0.1s0.1,0.1,0.2,0.2
		s0.1,0.2,0.1,0.3c0,0.2,0,0.3-0.1,0.4c-0.1,0.1-0.2,0.1-0.3,0.1c-0.1,0-0.2,0-0.2-0.1s-0.1-0.1-0.1-0.2c0-0.1,0-0.1,0-0.2
		c0,0,0.1-0.1,0.1-0.1c0,0,0.1-0.1,0.1-0.1c0,0,0-0.1,0-0.2c0-0.1,0-0.2-0.1-0.2s-0.2-0.1-0.3-0.1c-0.2,0-0.4,0-0.5,0.1
		s-0.3,0.2-0.5,0.4c-0.1,0.2-0.3,0.3-0.4,0.5c-0.1,0.2-0.2,0.4-0.3,0.6c-0.1,0.2-0.1,0.4-0.2,0.6s-0.1,0.4-0.1,0.6
		c0,0.3,0.1,0.5,0.2,0.7c0.1,0.2,0.4,0.3,0.7,0.3c0.2,0,0.3,0,0.5-0.1c0.1-0.1,0.3-0.1,0.4-0.2c0.1-0.1,0.2-0.2,0.3-0.3
		c0.1-0.1,0.2-0.2,0.2-0.3l0.1,0.1C125,43.1,125,43.2,124.9,43.3z"/>
	<path class="st2" d="M125.9,41.4c0.1-0.3,0.3-0.6,0.6-0.8c0.2-0.2,0.5-0.4,0.8-0.5s0.6-0.2,0.8-0.2c0.2,0,0.4,0,0.6,0.1
		s0.3,0.2,0.4,0.4c0.1,0.1,0.2,0.3,0.3,0.5c0.1,0.2,0.1,0.4,0.1,0.5c0,0.3-0.1,0.7-0.2,1c-0.2,0.3-0.3,0.6-0.6,0.8
		c-0.2,0.2-0.5,0.4-0.8,0.6c-0.3,0.1-0.5,0.2-0.8,0.2c-0.2,0-0.4,0-0.6-0.1c-0.2-0.1-0.3-0.2-0.4-0.3c-0.1-0.1-0.2-0.3-0.3-0.5
		c-0.1-0.2-0.1-0.4-0.1-0.6C125.7,42.1,125.8,41.7,125.9,41.4z M126.5,43.6c0.1,0.1,0.3,0.2,0.6,0.2c0.2,0,0.4-0.1,0.5-0.2
		c0.2-0.1,0.3-0.3,0.4-0.4s0.2-0.4,0.4-0.6c0.1-0.2,0.2-0.4,0.3-0.6c0.1-0.2,0.1-0.4,0.2-0.6c0-0.2,0.1-0.3,0.1-0.5
		c0-0.3-0.1-0.5-0.2-0.7S128.3,40,128,40c-0.2,0-0.3,0.1-0.5,0.2c-0.2,0.1-0.3,0.2-0.4,0.4c-0.1,0.2-0.2,0.4-0.3,0.6
		c-0.1,0.2-0.2,0.4-0.3,0.6c-0.1,0.2-0.1,0.4-0.2,0.6s-0.1,0.4-0.1,0.5C126.3,43.2,126.3,43.5,126.5,43.6z"/>
	<path class="st2" d="M131.2,40.6c0-0.2,0.1-0.3,0.1-0.5h-0.8l0-0.1h1.4c0,0.1-0.1,0.3-0.1,0.5c-0.1,0.2-0.1,0.4-0.2,0.6l0,0
		c0.1-0.1,0.1-0.2,0.2-0.3c0.1-0.1,0.2-0.2,0.3-0.4c0.1-0.1,0.2-0.2,0.4-0.3c0.1-0.1,0.3-0.1,0.4-0.1c0.2,0,0.4,0.1,0.5,0.2
		s0.2,0.3,0.2,0.4c0,0.1,0,0.2,0,0.2c0,0.1-0.1,0.1-0.1,0.1s-0.1,0.1-0.2,0.1c-0.1,0-0.1,0-0.2,0c-0.1,0-0.2,0-0.2-0.1
		s-0.1-0.1-0.1-0.2c0-0.1,0-0.1,0-0.1c0,0,0.1-0.1,0.1-0.1c0,0,0.1-0.1,0.1-0.1c0,0,0-0.1,0-0.1c0-0.1,0-0.1-0.1-0.1
		s-0.1-0.1-0.2-0.1c-0.1,0-0.2,0.1-0.4,0.2c-0.2,0.1-0.3,0.3-0.4,0.5c-0.1,0.2-0.3,0.4-0.4,0.6s-0.2,0.5-0.3,0.7l-0.6,1.8h-0.6
		l1-2.8C131.1,40.9,131.1,40.8,131.2,40.6z"/>
	<path class="st2" d="M136.8,43.2c0,0.1-0.1,0.3-0.1,0.4c0,0.2,0.1,0.2,0.2,0.2c0.1,0,0.2,0,0.3-0.1c0.1-0.1,0.2-0.1,0.2-0.2
		c0.1-0.1,0.1-0.2,0.2-0.3s0.1-0.1,0.1-0.2l0.1,0.1c0,0.1-0.1,0.2-0.1,0.3c-0.1,0.1-0.1,0.2-0.2,0.3c-0.1,0.1-0.2,0.2-0.3,0.2
		c-0.1,0.1-0.3,0.1-0.4,0.1c-0.4,0-0.6-0.2-0.6-0.5c0,0,0-0.1,0-0.2c0-0.1,0-0.2,0.1-0.3h0c-0.1,0.1-0.2,0.2-0.3,0.3
		c-0.1,0.1-0.2,0.2-0.4,0.3c-0.1,0.1-0.3,0.2-0.4,0.3c-0.2,0.1-0.3,0.1-0.5,0.1c-0.1,0-0.2,0-0.4-0.1c-0.1,0-0.2-0.1-0.3-0.2
		c-0.1-0.1-0.2-0.2-0.2-0.4c-0.1-0.1-0.1-0.3-0.1-0.5c0-0.2,0-0.5,0.1-0.7c0.1-0.2,0.2-0.5,0.4-0.7s0.3-0.4,0.5-0.6
		c0.2-0.2,0.4-0.3,0.6-0.5c0.2-0.1,0.4-0.2,0.6-0.3c0.2-0.1,0.4-0.1,0.5-0.1c0.2,0,0.3,0.1,0.5,0.2c0.1,0.1,0.2,0.2,0.2,0.4h0
		l0.2-0.4h0.6l-1,2.7C136.9,42.9,136.8,43,136.8,43.2z M137,40.7c0-0.1,0-0.2,0-0.2c0-0.1,0-0.1,0-0.2c0-0.1,0-0.1-0.1-0.2
		c0-0.1-0.1-0.1-0.2-0.1c-0.1,0-0.2-0.1-0.3-0.1c-0.2,0-0.4,0.1-0.6,0.2c-0.2,0.1-0.4,0.3-0.5,0.4s-0.3,0.4-0.5,0.6
		c-0.1,0.2-0.3,0.5-0.4,0.7c-0.1,0.2-0.2,0.5-0.2,0.7c-0.1,0.2-0.1,0.4-0.1,0.6c0,0.2,0,0.3,0.1,0.5c0.1,0.1,0.2,0.2,0.4,0.2
		c0.2,0,0.4-0.1,0.5-0.2c0.2-0.1,0.3-0.2,0.5-0.4c0.2-0.2,0.3-0.3,0.4-0.5c0.1-0.2,0.2-0.3,0.2-0.4l0.5-1.3
		C136.9,41,137,40.8,137,40.7z"/>
	<path class="st2" d="M140.7,39.1l-0.3,0.9h1l0,0.1h-1l-1,2.9c0,0.1-0.1,0.2-0.1,0.3s0,0.2,0,0.3c0,0.1,0,0.2,0.1,0.2
		s0.1,0.1,0.2,0.1c0.1,0,0.2,0,0.3-0.1c0.1-0.1,0.2-0.1,0.3-0.2c0.1-0.1,0.1-0.2,0.2-0.3c0.1-0.1,0.1-0.2,0.1-0.2l0.1,0
		c0,0-0.1,0.1-0.1,0.2c-0.1,0.1-0.1,0.2-0.2,0.3c-0.1,0.1-0.2,0.2-0.3,0.3s-0.3,0.1-0.5,0.1c-0.2,0-0.4-0.1-0.5-0.2
		s-0.2-0.2-0.2-0.4c0-0.1,0-0.3,0.1-0.4c0-0.2,0.1-0.3,0.1-0.4l0.9-2.4h-0.8l0-0.1h0.8l0.3-0.9H140.7z"/>
	<path class="st2" d="M141.6,40.1l0-0.1h1.4L142,43c0,0.1-0.1,0.2-0.1,0.3c0,0.1,0,0.2,0,0.3c0,0.1,0,0.1,0.1,0.2
		c0,0.1,0.1,0.1,0.2,0.1c0.1,0,0.2,0,0.3-0.1c0.1-0.1,0.2-0.1,0.3-0.2c0.1-0.1,0.1-0.2,0.2-0.3c0.1-0.1,0.1-0.2,0.1-0.2l0.1,0
		c0,0-0.1,0.1-0.1,0.2c-0.1,0.1-0.1,0.2-0.2,0.3c-0.1,0.1-0.2,0.2-0.3,0.3c-0.1,0.1-0.3,0.1-0.5,0.1c-0.2,0-0.4,0-0.5-0.1
		c-0.1-0.1-0.2-0.2-0.2-0.4c0-0.1,0-0.2,0.1-0.3s0.1-0.2,0.1-0.3l0.9-2.6H141.6z M143.1,37.6c0.1-0.1,0.2-0.1,0.3-0.1s0.2,0,0.3,0.1
		s0.1,0.2,0.1,0.3c0,0.1,0,0.2-0.1,0.3s-0.2,0.1-0.3,0.1s-0.2,0-0.3-0.1s-0.1-0.2-0.1-0.3C142.9,37.7,143,37.6,143.1,37.6z"/>
	<path class="st2" d="M143.9,41.4c0.2-0.3,0.3-0.6,0.6-0.8c0.2-0.2,0.5-0.4,0.8-0.5s0.6-0.2,0.8-0.2c0.2,0,0.4,0,0.6,0.1
		c0.2,0.1,0.3,0.2,0.4,0.4c0.1,0.1,0.2,0.3,0.3,0.5c0.1,0.2,0.1,0.4,0.1,0.5c0,0.3-0.1,0.7-0.2,1c-0.1,0.3-0.3,0.6-0.6,0.8
		c-0.2,0.2-0.5,0.4-0.8,0.6s-0.5,0.2-0.8,0.2c-0.2,0-0.4,0-0.6-0.1s-0.3-0.2-0.4-0.3c-0.1-0.1-0.2-0.3-0.3-0.5
		c-0.1-0.2-0.1-0.4-0.1-0.6C143.7,42.1,143.7,41.7,143.9,41.4z M144.5,43.6c0.1,0.1,0.3,0.2,0.6,0.2c0.2,0,0.4-0.1,0.5-0.2
		c0.2-0.1,0.3-0.3,0.4-0.4s0.2-0.4,0.4-0.6c0.1-0.2,0.2-0.4,0.3-0.6s0.1-0.4,0.2-0.6c0-0.2,0.1-0.3,0.1-0.5c0-0.3-0.1-0.5-0.2-0.7
		c-0.1-0.2-0.3-0.3-0.6-0.3c-0.2,0-0.3,0.1-0.5,0.2c-0.2,0.1-0.3,0.2-0.4,0.4s-0.2,0.4-0.3,0.6c-0.1,0.2-0.2,0.4-0.3,0.6
		c-0.1,0.2-0.1,0.4-0.2,0.6s-0.1,0.4-0.1,0.5C144.3,43.2,144.3,43.5,144.5,43.6z"/>
	<path class="st2" d="M148.5,40.1l0-0.1h1.4l-0.4,1.1h0c0.6-0.8,1.1-1.2,1.6-1.2c0.3,0,0.5,0.1,0.6,0.2c0.1,0.1,0.2,0.3,0.2,0.5
		c0,0.1,0,0.2,0,0.3c0,0.1-0.1,0.2-0.1,0.4l-0.6,1.7c0,0.1-0.1,0.2-0.1,0.3c0,0.1,0,0.2,0,0.3c0,0.1,0,0.1,0,0.2
		c0,0.1,0.1,0.1,0.2,0.1c0.1,0,0.2,0,0.3-0.1c0.1-0.1,0.2-0.1,0.2-0.2c0.1-0.1,0.1-0.2,0.2-0.3c0.1-0.1,0.1-0.2,0.1-0.2l0.1,0
		c0,0.1-0.1,0.1-0.1,0.2c-0.1,0.1-0.1,0.2-0.2,0.3c-0.1,0.1-0.2,0.2-0.3,0.2c-0.1,0.1-0.3,0.1-0.5,0.1c-0.2,0-0.4,0-0.5-0.1
		s-0.2-0.2-0.2-0.4c0-0.1,0-0.2,0-0.2c0-0.1,0-0.2,0.1-0.3l0.8-2.2c0-0.1,0.1-0.3,0.1-0.4c0-0.1,0-0.2-0.1-0.2
		c-0.1-0.1-0.1-0.1-0.3-0.1c-0.1,0-0.3,0-0.5,0.1c-0.2,0.1-0.3,0.2-0.5,0.4s-0.3,0.4-0.5,0.6c-0.2,0.2-0.3,0.5-0.4,0.8l-0.7,1.9H148
		l1.3-3.7H148.5z"/>
</g>
</svg>
