<?xml version="1.0" encoding="utf-8"?>
<!-- Generator: Adobe Illustrator 22.1.0, SVG Export Plug-In . SVG Version: 6.00 Build 0)  -->
<svg version="1.1" id="Calque_1" xmlns="http://www.w3.org/2000/svg" xmlns:xlink="http://www.w3.org/1999/xlink" x="0px" y="0px"
	 viewBox="0 0 238.1 155.9" style="enable-background:new 0 0 238.1 155.9;" xml:space="preserve">
<style type="text/css">
	.st0{fill:#727171;}
	.st1{fill:none;}
</style>
<g>
	<path class="st0" d="M36.1,28.2v0.3H34v15.7h3.8c0.5,0,1-0.1,1.5-0.3c0.5-0.2,1-0.4,1.4-0.8c0.5-0.4,0.9-0.9,1.2-1.5
		s0.6-1.4,0.8-2.3h0.3v5.2H28.6v-0.3h2.1V28.5h-2.1v-0.3H36.1z"/>
	<path class="st0" d="M51.7,36v2.1h-0.2c0-0.1-0.1-0.3-0.2-0.5c-0.1-0.2-0.2-0.4-0.4-0.6c-0.2-0.2-0.4-0.4-0.7-0.5s-0.6-0.2-1-0.2
		h-1.9v3.7h0.7c0.3,0,0.5,0,0.8-0.1s0.4-0.2,0.5-0.4c0.1-0.2,0.2-0.3,0.3-0.6c0.1-0.2,0.2-0.5,0.2-0.7H50v3.7h-0.2
		c-0.1-0.2-0.1-0.5-0.2-0.7c-0.1-0.2-0.2-0.4-0.3-0.6s-0.3-0.3-0.5-0.4s-0.4-0.1-0.7-0.1h-0.8v4.3h2c0.4,0,0.7-0.1,1-0.2
		s0.6-0.3,0.8-0.5s0.4-0.5,0.6-0.8c0.2-0.3,0.3-0.6,0.3-1h0.2v2.6h-7.7v-0.2h1.1v-8.2h-1.1V36H51.7z"/>
	<path class="st0" d="M53.8,41.7c0,0.1,0,0.2,0.1,0.4s0.1,0.4,0.2,0.5c0.1,0.2,0.2,0.4,0.3,0.6s0.3,0.4,0.5,0.6
		c0.2,0.2,0.4,0.4,0.6,0.5c0.2,0.1,0.4,0.2,0.5,0.2c0.2,0,0.3,0.1,0.5,0.1c0.2,0,0.3,0,0.4,0c0.5,0,0.8-0.1,1.1-0.2s0.5-0.3,0.7-0.5
		c0.2-0.2,0.3-0.4,0.4-0.7c0.1-0.2,0.1-0.4,0.1-0.6c0-0.3-0.1-0.6-0.2-0.8c-0.2-0.2-0.4-0.4-0.6-0.5c-0.3-0.1-0.5-0.3-0.9-0.4
		c-0.3-0.1-0.7-0.2-1-0.3s-0.7-0.2-1-0.4c-0.3-0.1-0.6-0.3-0.9-0.5c-0.3-0.2-0.5-0.5-0.6-0.8c-0.2-0.3-0.2-0.7-0.2-1.2
		c0-0.3,0.1-0.7,0.2-1c0.2-0.3,0.4-0.6,0.6-0.9s0.6-0.4,1-0.6c0.4-0.2,0.8-0.2,1.3-0.2c0.3,0,0.5,0,0.8,0.1c0.2,0.1,0.4,0.1,0.6,0.2
		c0.2,0.1,0.3,0.1,0.4,0.2c0.1,0.1,0.2,0.1,0.3,0.1c0.1,0,0.2,0,0.2-0.1s0.1-0.1,0.1-0.2h0.2v2.5h-0.2c-0.1-0.3-0.2-0.6-0.3-0.9
		c-0.1-0.3-0.3-0.6-0.4-0.8s-0.4-0.4-0.7-0.6s-0.6-0.2-1.1-0.2c-0.3,0-0.7,0-0.9,0.1c-0.3,0.1-0.5,0.2-0.7,0.4
		c-0.2,0.2-0.3,0.3-0.4,0.5c-0.1,0.2-0.1,0.4-0.1,0.6c0,0.3,0.1,0.6,0.2,0.8c0.2,0.2,0.4,0.4,0.6,0.5c0.3,0.1,0.6,0.3,0.9,0.4
		s0.7,0.2,1,0.3s0.7,0.2,1,0.4c0.3,0.1,0.6,0.3,0.9,0.5c0.3,0.2,0.5,0.5,0.6,0.8c0.2,0.3,0.2,0.7,0.2,1.1c0,0.4-0.1,0.8-0.3,1.2
		c-0.2,0.4-0.4,0.7-0.7,1s-0.7,0.5-1.1,0.7c-0.4,0.2-0.9,0.3-1.5,0.3c-0.3,0-0.5,0-0.8-0.1c-0.3-0.1-0.5-0.1-0.7-0.2
		c-0.2-0.1-0.4-0.1-0.6-0.2c-0.2-0.1-0.3-0.1-0.4-0.1c-0.1,0-0.2,0-0.3,0.1c-0.1,0-0.1,0.1-0.1,0.2h-0.2v-2.9H53.8z"/>
	<path class="st0" d="M66.4,50.2l9.2-22.5h0.8l9.8,22.5h2.7v0.4H78.4v-0.4h2.9l-3.6-8.3h-7.4l-3.4,8.3h2.8v0.4h-5.9v-0.4H66.4z
		 M70.4,41.4h7.1l-3.7-8.5L70.4,41.4z"/>
	<path class="st0" d="M92.8,35.3v0.2h-1.2v5.8c0,0.4,0,0.8,0.1,1.2s0.1,0.7,0.3,1c0.1,0.3,0.4,0.5,0.6,0.7c0.3,0.2,0.7,0.3,1.1,0.3
		c0.5,0,0.9-0.1,1.2-0.2s0.6-0.3,0.8-0.4s0.4-0.4,0.5-0.6c0.1-0.2,0.2-0.4,0.2-0.7c0.1-0.2,0.1-0.4,0.1-0.6s0-0.4,0-0.5v-6.1h-1.2
		v-0.2h2.6v0.2h-1.2v6.1c0,0.1,0,0.3,0,0.5c0,0.2,0,0.4-0.1,0.7c-0.1,0.2-0.2,0.5-0.3,0.7c-0.1,0.2-0.3,0.4-0.5,0.6
		c-0.2,0.2-0.5,0.3-0.9,0.5c-0.4,0.1-0.8,0.2-1.3,0.2c-0.8,0-1.5-0.1-2-0.3c-0.5-0.2-0.9-0.4-1.2-0.7c-0.3-0.3-0.5-0.6-0.5-1
		c-0.1-0.4-0.1-0.8-0.1-1.2v-6.1h-1.2v-0.2H92.8z"/>
	<path class="st0" d="M103,30.6c-0.5,0-0.9,0-1.3,0.1s-0.7,0.3-1,0.5c-0.3,0.2-0.6,0.6-0.8,1c-0.2,0.4-0.5,1-0.7,1.7h-0.3v-3.7h12.5
		V34h-0.3c-0.2-0.7-0.4-1.2-0.7-1.7c-0.2-0.4-0.5-0.8-0.8-1c-0.3-0.2-0.7-0.4-1-0.5s-0.8-0.1-1.3-0.1h-0.7v13.7h1.8v0.3h-6.6v-0.3
		h1.8V30.6H103z"/>
	<path class="st0" d="M112.7,37.5v-0.2h2c0.4,0,0.7,0,1.1,0c0.4,0,0.7,0,1.1,0c0.3,0,0.7,0,1.1,0.1s0.7,0.2,1,0.4s0.6,0.4,0.8,0.7
		c0.2,0.3,0.3,0.6,0.3,1.1c0,0.3-0.1,0.6-0.2,0.9c-0.2,0.2-0.4,0.4-0.6,0.6c-0.2,0.2-0.5,0.3-0.8,0.4c-0.3,0.1-0.6,0.1-0.9,0.2v0.1
		c0.4,0.1,0.8,0.2,1.1,0.2c0.3,0.1,0.6,0.2,0.9,0.4c0.2,0.2,0.4,0.4,0.6,0.7s0.2,0.6,0.3,1.1c0,0.5,0.1,1,0.1,1.3
		c0,0.3,0.1,0.6,0.1,0.8c0,0.2,0.1,0.3,0.2,0.4s0.2,0.1,0.4,0.1c0.2,0,0.3,0,0.4-0.1c0.1-0.1,0.2-0.2,0.3-0.3l0.1,0.1
		c-0.1,0.1-0.2,0.2-0.3,0.2c-0.1,0.1-0.2,0.1-0.3,0.2c-0.1,0.1-0.2,0.1-0.4,0.1c-0.2,0-0.4,0-0.6,0c-0.5,0-0.8-0.1-1.1-0.2
		c-0.3-0.2-0.5-0.3-0.6-0.6c-0.1-0.2-0.2-0.5-0.2-0.7c0-0.3,0-0.5-0.1-0.7c0-0.4,0-0.7-0.1-1s-0.1-0.6-0.2-0.9
		c-0.1-0.3-0.3-0.5-0.5-0.6c-0.2-0.2-0.5-0.2-0.9-0.2h-0.9v4.7h1.2v0.2h-4.3v-0.2h1.2v-8.9H112.7z M116.3,41.5
		c0.4,0,0.7-0.1,0.9-0.2c0.2-0.1,0.4-0.2,0.5-0.4c0.1-0.2,0.2-0.4,0.2-0.6c0-0.2,0-0.5,0-0.7c0-0.4,0-0.7-0.1-1
		c-0.1-0.3-0.1-0.5-0.3-0.7s-0.3-0.3-0.5-0.4s-0.5-0.1-0.8-0.1c-0.1,0-0.2,0-0.3,0c-0.1,0-0.2,0-0.3,0v4H116.3z"/>
	<path class="st0" d="M126.4,35.3v0.2h-1.2v5.8c0,0.4,0,0.8,0.1,1.2s0.1,0.7,0.3,1c0.1,0.3,0.4,0.5,0.6,0.7c0.3,0.2,0.7,0.3,1.1,0.3
		c0.5,0,0.9-0.1,1.2-0.2c0.3-0.1,0.6-0.3,0.8-0.4s0.4-0.4,0.5-0.6c0.1-0.2,0.2-0.4,0.2-0.7c0.1-0.2,0.1-0.4,0.1-0.6
		c0-0.2,0-0.4,0-0.5v-6.1h-1.2v-0.2h2.6v0.2h-1.2v6.1c0,0.1,0,0.3,0,0.5c0,0.2,0,0.4-0.1,0.7c-0.1,0.2-0.2,0.5-0.3,0.7
		c-0.1,0.2-0.3,0.4-0.5,0.6c-0.2,0.2-0.5,0.3-0.9,0.5c-0.4,0.1-0.8,0.2-1.3,0.2c-0.8,0-1.5-0.1-2-0.3c-0.5-0.2-0.9-0.4-1.2-0.7
		c-0.3-0.3-0.5-0.6-0.5-1c-0.1-0.4-0.1-0.8-0.1-1.2v-6.1h-1.2v-0.2H126.4z"/>
	<path class="st0" d="M141.4,39c-0.1-0.3-0.2-0.7-0.4-1c-0.2-0.4-0.4-0.7-0.6-1s-0.5-0.6-0.9-0.8c-0.4-0.2-0.8-0.3-1.4-0.3
		c-0.7,0-1.3,0.1-1.7,0.4s-0.7,0.6-1,1.1c-0.2,0.5-0.4,1.1-0.4,1.7c-0.1,0.7-0.1,1.4-0.1,2.2c0,1,0.1,1.9,0.2,2.6
		c0.1,0.7,0.3,1.2,0.6,1.6c0.3,0.4,0.6,0.7,1,0.8c0.4,0.2,0.9,0.2,1.4,0.2c0.5,0,0.9-0.1,1.2-0.3s0.7-0.4,1-0.7
		c0.3-0.3,0.5-0.6,0.7-1c0.2-0.4,0.3-0.8,0.4-1.2h0.2v3.2h-0.2c0-0.1-0.1-0.2-0.2-0.2c-0.1,0-0.2-0.1-0.3-0.1c-0.1,0-0.3,0-0.5,0.1
		c-0.2,0.1-0.4,0.1-0.7,0.2c-0.2,0.1-0.5,0.1-0.8,0.2c-0.3,0.1-0.6,0.1-0.9,0.1c-0.7,0-1.4-0.1-2.1-0.4c-0.7-0.3-1.3-0.7-1.8-1.2
		c-0.5-0.5-0.9-1.1-1.2-1.7c-0.3-0.7-0.5-1.4-0.5-2.2c0-0.8,0.2-1.6,0.5-2.3c0.3-0.7,0.8-1.3,1.3-1.8c0.5-0.5,1.1-0.9,1.8-1.1
		c0.7-0.3,1.3-0.4,2-0.4c0.3,0,0.6,0,0.9,0.1c0.3,0.1,0.5,0.1,0.8,0.2c0.2,0.1,0.4,0.1,0.6,0.2c0.2,0.1,0.3,0.1,0.5,0.1
		c0.1,0,0.2,0,0.3-0.1s0.1-0.1,0.2-0.3h0.2V39H141.4z"/>
	<path class="st0" d="M147,36v0.2h-1.1v3.9h3.5v-3.9h-1.1V36h3.9v0.2h-1.1v8.2h1.1v0.2h-3.9v-0.2h1.1v-4.1h-3.5v4.1h1.1v0.2H143
		v-0.2h1.1v-8.2H143V36H147z"/>
	<path class="st0" d="M162.1,33.9v2.6h-0.2c0-0.2-0.1-0.4-0.3-0.7c-0.1-0.3-0.3-0.5-0.5-0.8s-0.5-0.5-0.8-0.7s-0.8-0.3-1.2-0.3h-2.4
		v4.6h0.8c0.4,0,0.7-0.1,0.9-0.2s0.5-0.3,0.6-0.4c0.2-0.2,0.3-0.4,0.4-0.7c0.1-0.3,0.2-0.6,0.3-0.9h0.2v4.7h-0.2
		c-0.1-0.3-0.2-0.6-0.2-0.8c-0.1-0.3-0.2-0.5-0.4-0.7c-0.2-0.2-0.4-0.4-0.6-0.5c-0.2-0.1-0.5-0.2-0.9-0.2h-1v5.4h2.5
		c0.5,0,0.9-0.1,1.2-0.2c0.4-0.2,0.7-0.4,1-0.7c0.3-0.3,0.5-0.6,0.7-1c0.2-0.4,0.3-0.8,0.4-1.2h0.2v3.3h-9.6v-0.2h1.4V34.1h-1.4
		v-0.2H162.1z"/>
	<path class="st0" d="M164.9,44.4c0,0.2,0.1,0.4,0.1,0.6s0.2,0.5,0.3,0.8c0.1,0.3,0.3,0.6,0.5,0.9c0.2,0.3,0.4,0.6,0.7,0.8
		c0.3,0.3,0.6,0.5,0.8,0.7s0.5,0.3,0.8,0.3c0.2,0.1,0.5,0.1,0.7,0.1s0.4,0,0.6,0c0.7,0,1.2-0.1,1.7-0.3s0.8-0.5,1-0.8s0.4-0.6,0.5-1
		c0.1-0.3,0.2-0.6,0.2-0.9c0-0.5-0.1-0.9-0.3-1.2s-0.5-0.6-0.9-0.8c-0.4-0.2-0.8-0.4-1.3-0.5c-0.5-0.1-1-0.3-1.4-0.4
		c-0.5-0.1-1-0.3-1.4-0.5s-0.9-0.4-1.3-0.8c-0.4-0.3-0.7-0.7-0.9-1.1s-0.3-1-0.3-1.7c0-0.5,0.1-1,0.3-1.5c0.2-0.5,0.5-0.9,1-1.2
		c0.4-0.4,0.9-0.7,1.5-0.9s1.2-0.3,1.8-0.3c0.4,0,0.8,0,1.1,0.1c0.3,0.1,0.6,0.2,0.8,0.2c0.2,0.1,0.5,0.2,0.6,0.2
		c0.2,0.1,0.4,0.1,0.5,0.1c0.2,0,0.3,0,0.4-0.1c0.1-0.1,0.1-0.2,0.2-0.3h0.3v3.6h-0.2c-0.2-0.4-0.3-0.9-0.5-1.3s-0.4-0.8-0.7-1.2
		c-0.3-0.3-0.6-0.6-1-0.8c-0.4-0.2-0.9-0.3-1.5-0.3c-0.5,0-1,0.1-1.3,0.2c-0.4,0.1-0.7,0.3-1,0.6c-0.3,0.2-0.5,0.5-0.6,0.8
		c-0.1,0.3-0.2,0.6-0.2,0.9c0,0.4,0.1,0.8,0.4,1.1s0.5,0.5,0.9,0.8s0.8,0.4,1.3,0.5c0.5,0.2,1,0.3,1.5,0.5s1,0.3,1.5,0.5
		s0.9,0.4,1.3,0.8c0.4,0.3,0.7,0.7,0.9,1.1c0.2,0.4,0.4,1,0.4,1.6c0,0.6-0.1,1.2-0.4,1.8c-0.3,0.6-0.6,1-1.1,1.5
		c-0.5,0.4-1,0.8-1.7,1s-1.4,0.4-2.1,0.4c-0.4,0-0.8,0-1.2-0.1c-0.4-0.1-0.7-0.2-1.1-0.2s-0.6-0.2-0.9-0.2c-0.3-0.1-0.5-0.1-0.6-0.1
		c-0.2,0-0.3,0-0.4,0.1s-0.1,0.2-0.2,0.4h-0.3v-4.2H164.9z"/>
</g>
<rect x="104.6" y="37.1" class="st1" width="0.7" height="12"/>
</svg>
