<?xml version="1.0" encoding="utf-8"?>
<!-- Generator: Adobe Illustrator 22.1.0, SVG Export Plug-In . SVG Version: 6.00 Build 0)  -->
<svg version="1.1" id="Calque_1" xmlns="http://www.w3.org/2000/svg" xmlns:xlink="http://www.w3.org/1999/xlink" x="0px" y="0px"
	 viewBox="0 0 250 50" style="enable-background:new 0 0 250 50;" xml:space="preserve">
<style type="text/css">
	.st0{fill:none;}
	.st1{font-family:'Didot';}
	.st2{font-size:12px;}
</style>
<path class="st0" d="M0,19.7h250V30H0V19.7z"/>
<text transform="matrix(1 0 0 1 100.1431 30)" class="st1 st2">ENVOYÉ</text>
<path d="M0,48c10.4-0.2,20.8-0.3,31.2-0.5l31.2-0.3c20.8-0.2,41.7-0.1,62.5-0.2c20.8,0.1,41.7,0.1,62.5,0.2l31.2,0.3
	c10.4,0.2,20.8,0.3,31.2,0.5c-10.4,0.2-20.8,0.3-31.2,0.5l-31.2,0.3C166.6,49,145.7,49,124.9,49c-20.8-0.1-41.7-0.1-62.5-0.2
	l-31.2-0.3C20.8,48.3,10.4,48.2,0,48z"/>
<path d="M247.5,4c0.2,3.3,0.3,6.7,0.4,10s0.1,6.7,0.1,10s0,6.7-0.1,10l-0.1,5c-0.1,1.7-0.1,3.3-0.2,5c-0.1-1.7-0.2-3.3-0.2-5l-0.1-5
	c-0.1-3.3-0.1-6.7-0.1-10s0-6.7,0.1-10C247.2,10.7,247.3,7.3,247.5,4L247.5,4z"/>
<path d="M0,2c10.4-0.2,20.8-0.3,31.2-0.5l31.2-0.3C83.3,1.1,104.2,1.1,125,1c20.8,0.1,41.7,0.1,62.5,0.2l31.2,0.3
	C229.2,1.7,239.6,1.8,250,2c-10.4,0.2-20.8,0.3-31.2,0.5l-31.2,0.3C166.7,2.9,145.8,2.9,125,3c-20.8-0.1-41.7-0.1-62.5-0.2L31.2,2.5
	C20.8,2.3,10.4,2.2,0,2z"/>
<path d="M0,2c10.4-0.2,20.8-0.3,31.2-0.5l31.2-0.3C83.3,1.1,104.2,1.1,125,1c20.8,0.1,41.7,0.1,62.5,0.2l31.2,0.3
	C229.2,1.7,239.6,1.8,250,2c-10.4,0.2-20.8,0.3-31.2,0.5l-31.2,0.3C166.7,2.9,145.8,2.9,125,3c-20.8-0.1-41.7-0.1-62.5-0.2L31.2,2.5
	C20.8,2.3,10.4,2.2,0,2z"/>
<path d="M0,2l31.2-0.2l31.3-0.1L125,1.5l62.5,0.2l31.3,0.1L250,2l-31.2,0.2l-31.3,0.1L125,2.5L62.5,2.3L31.2,2.2L0,2z"/>
<path d="M2,4c0.2,3.3,0.3,6.7,0.4,10s0.1,6.7,0.1,10s0,6.7-0.1,10l-0.1,5c-0.1,1.7-0.1,3.3-0.2,5c-0.1-1.7-0.2-3.3-0.2-5l-0.1-5
	c-0.1-3.3-0.1-6.7-0.1-10s0-6.7,0.1-10C1.7,10.7,1.8,7.3,2,4z"/>
</svg>
