<?xml version="1.0" encoding="utf-8"?>
<!-- Generator: Adobe Illustrator 22.1.0, SVG Export Plug-In . SVG Version: 6.00 Build 0)  -->
<svg version="1.1" id="Calque_1" xmlns="http://www.w3.org/2000/svg" xmlns:xlink="http://www.w3.org/1999/xlink" x="0px" y="0px"
	 viewBox="0 0 32 32" style="enable-background:new 0 0 32 32;" xml:space="preserve">
<style type="text/css">
	.st0{fill:#A29D9D;}
	.st1{fill:none;}
	.st2{fill:#706A6A;}
	.st3{font-family:'Didot';}
	.st4{font-size:7px;}
</style>
<g>
	<g>
		<g>
			<g>
				<g>
					<path class="st0" d="M27.7,3.8c0-0.1,0-0.3,0-0.2L27.7,3.8L27.7,3.8z"/>
					<path class="st0" d="M27.5,3.2c-0.1,0.2-0.1,0.4-0.1,0.7c0.1-0.3,0.1-0.2,0.1-0.6c0,0,0.1,0.1,0,0.2c0-0.1,0.1,0.1,0.1-0.1
						c0-0.3-0.1-0.3-0.2-0.1C27.5,3.3,27.5,3.2,27.5,3.2z"/>
					<path class="st0" d="M23.7,2.4L23.7,2.4C23.7,2.4,23.7,2.4,23.7,2.4z"/>
					<path class="st0" d="M21.3,2.1C21.3,2,21.3,2,21.3,2.1C21.3,2,21.3,2,21.3,2.1z"/>
					<path class="st0" d="M20.9,1.7C20.9,1.7,20.9,1.7,20.9,1.7C20.9,1.7,20.9,1.6,20.9,1.7z"/>
					<path class="st0" d="M23.7,2.4l-0.1-0.1C23.6,2.4,23.6,2.4,23.7,2.4z"/>
					<path class="st0" d="M26.9,3.9C26.9,3.9,26.9,3.9,26.9,3.9C26.9,3.9,26.9,3.9,26.9,3.9C26.9,3.9,26.9,3.9,26.9,3.9z"/>
					<path class="st0" d="M24.7,2.2L24.7,2.2c0,0,0-0.1,0-0.1L24.7,2.2z"/>
					<path class="st0" d="M25.5,2.2c0,0,0,0.3-0.1,0.4c0-0.1,0-0.2,0.1-0.2C25.5,2.3,25.6,2.3,25.5,2.2z"/>
					<path class="st0" d="M26.8,2.8L26.8,2.8C26.8,2.8,26.8,2.8,26.8,2.8z"/>
					<path class="st0" d="M24.2,2.1c0,0,0-0.1,0-0.1C24.2,2,24.2,2.1,24.2,2.1z"/>
					<path class="st0" d="M1.4,2.7C1.4,2.7,1.4,2.7,1.4,2.7C1.4,2.7,1.4,2.7,1.4,2.7z"/>
					<path class="st0" d="M0.6,1.3L0.6,1.3c0-0.1,0-0.1,0-0.2L0.6,1.3z"/>
					<path class="st0" d="M20.2,1.3C20.2,1.3,20.2,1.3,20.2,1.3C20.2,1.2,20.2,1.2,20.2,1.3z"/>
					<path class="st0" d="M13.3,1c0.1,0.3-0.1,0.3,0,0.6C13.3,1.5,13.4,1.2,13.3,1z"/>
					<path class="st0" d="M26.9,3.9C26.9,3.9,26.9,3.9,26.9,3.9C26.9,3.9,26.9,3.9,26.9,3.9z"/>
					<path class="st0" d="M13.3,1.6C13.3,1.6,13.3,1.6,13.3,1.6L13.3,1.6C13.3,1.6,13.3,1.6,13.3,1.6z"/>
					<path class="st0" d="M18.5,1.3c0,0,0,0.1,0,0.1C18.5,1.4,18.5,1.4,18.5,1.3z"/>
					<path class="st0" d="M19.7,1.8L19.7,1.8C19.7,1.8,19.7,1.8,19.7,1.8z"/>
					<path class="st0" d="M17.8,1.7C17.8,1.6,17.8,1.6,17.8,1.7C17.7,1.6,17.7,1.7,17.8,1.7C17.7,1.6,17.8,1.6,17.8,1.7z"/>
					<path class="st0" d="M17.1,1.6C17.1,1.6,17.1,1.7,17.1,1.6C17.1,1.7,17.1,1.7,17.1,1.6L17.1,1.6z"/>
					<path class="st0" d="M3.6,2.7c0-0.1,0-0.2,0-0.3C3.5,2.7,3.4,2.7,3.6,2.7z"/>
					<path class="st0" d="M26.9,3.8c0,0.1,0,0.1,0,0.1c0,0,0,0,0,0C26.9,3.8,26.9,3.8,26.9,3.8z"/>
					<path class="st0" d="M17.6,3.9l-0.1,0C17.5,3.9,17.6,3.9,17.6,3.9z"/>
					<path class="st0" d="M8.5,3L8.5,3C8.5,3,8.5,3,8.5,3z"/>
					<path class="st0" d="M17.2,3.8c0-0.1,0-0.2,0-0.2c0,0,0,0,0,0.1L17.2,3.8z"/>
					<path class="st0" d="M3.5,2.5C3.5,2.5,3.5,2.5,3.5,2.5C3.5,2.5,3.5,2.5,3.5,2.5z"/>
					<path class="st0" d="M2.8,3.1c0.1,0,0.1-0.4,0.1-0.6C3,2.4,2.9,2.8,3,3C3,2.9,3.1,2.5,3.2,2.6c0,0.1,0,0.1,0,0.2
						c0.1-0.3,0.2,0,0.4-0.4c0,0,0,0.1,0,0.1c0-0.2,0-0.4,0-0.5c0,0,0.1-0.2,0.1,0c0,0,0,0.1-0.1,0.2L3.7,2c0,0.3-0.1,0.1-0.1,0.4
						C3.7,2.3,3.8,2,3.9,2.1c0,0.3-0.2,0.1-0.1,0.4L3.7,2.4c0.1,0.5-0.1,0,0,0.5C3.8,3,3.8,2.8,4,2.9C4,2.7,4,2.6,4,2.4
						c0.2-0.3,0.1,0.9,0.3,0.4c0.1-0.2,0.1-0.7,0.2-0.4L4.4,2.8c0.1,0,0.1-0.5,0.3-0.3c0,0.1-0.1,0.1-0.1,0.2C4.7,3,4.7,2.5,4.8,2.5
						l0,0.3c0.2,0,0.3-0.3,0.5-0.3c0,0.1-0.1,0.2,0,0.3c0.2-0.2,0.5,0.1,0.7,0.3L6,2.8c0,0,0,0.1,0,0.2c0.1,0.1,0-0.2,0.1-0.3
						c0,0,0,0.2,0,0.3c0.2-0.2,0.4-0.5,0.6-0.2l0,0.1C6.7,3,6.8,2.3,6.9,2.5l0,0.1c0.2,0.1,0.5-0.1,0.7,0.3c0.1-0.4,0.2,0.2,0.3-0.4
						C8,2.9,7.9,3,8.1,3.2c0.1,0,0.1-0.4,0.2-0.4l0,0.3l0.1-0.3l0,0.4L8.5,3c0,0,0-0.1,0-0.2C8.6,2.7,8.7,3,8.7,3.2l0.3-0.2
						c0,0.1-0.1,0.2-0.1,0.2c0.1-0.3,0,0.3,0.1,0C9,3.2,9,3,9,3c0,0.2,0.2,0.2,0.3,0.1l0,0.2c0.2,0.1,0.4-0.1,0.6-0.1
						c-0.1-0.1,0-0.5,0-0.5l0,0.3c0.1-0.2-0.1-0.1,0-0.4c0.1,0,0,0.4,0,0.5L10,3.1c0,0.1,0,0.1,0,0.3c0-0.2,0.1,0.3,0.2,0l0,0.1
						c0.2,0,0.3-0.1,0.5-0.1c0-0.3,0.1-0.2,0.1-0.4c0.1,0.1,0.2,0.3,0.4,0.3c0.1-0.1,0-0.2,0.1-0.4c0,0.3,0.1,0.2,0,0.4
						c0.2,0,0.2,0,0.4-0.2c0-0.1,0-0.2,0-0.2c0,0,0.1,0.1,0.1,0.2l0,0c0.3-0.4,0.5,0.8,0.7,0.3l0,0l0.2-0.3c0.1,0.1-0.1,0.2,0,0.4
						C12.9,3,13,3.5,13.2,3.2c0.1,0.8,0.5,0,0.6,0.5l0-0.2c0.1-0.2,0.1,0.1,0.1,0.1c0-0.1,0-0.2,0-0.3c0.4-0.2,0.8,0.3,1.2,0.5
						C15.2,4,15.2,3,15.4,3.4l-0.1,0.3c0.3-0.4,0.6,0.1,0.9-0.3c0,0.1,0,0.2-0.1,0.2c0,0.2,0.2,0,0.2-0.2c0,0,0,0.2,0,0.3
						c0.1,0.1,0.2-0.3,0.2-0.1c0,0,0,0.1,0,0.1c0-0.1,0.2,0,0.2-0.2c0.1,0.1,0.2-0.1,0.3,0.1c0.1-0.3,0.2,0.2,0.2-0.3
						c0,0.5,0.2,0.4,0.3,0.2c0,0.1,0.1,0.1,0,0.3c0.1,0,0.2-0.1,0.2-0.3c0.1,0.5,0.3-0.4,0.4,0.3c0.3-0.2,0.5-0.4,0.7-0.5
						c0,0.4-0.2,0-0.3,0.5c0.2-0.2,0.4-0.6,0.6-0.4c0,0.1,0,0.2-0.1,0.3c0.2-0.2,0.4,0.1,0.6-0.2c0,0,0,0.1,0,0.1
						c0,0,0.1,0.1,0.1-0.1l0,0.1c0-0.3,0.2-0.6,0.2-0.8c-0.1,0.6,0.2,0.2,0,0.9c0,0,0.1-0.1,0.1-0.3c0,0,0,0.1,0,0.3
						c0.1-0.1,0.1-0.3,0.2-0.3c0,0.1,0,0.1-0.1,0.3c0.1-0.2,0.1-0.4,0.2-0.3c0,0.1,0,0.1,0,0.1c0.2,0,0.3-0.5,0.5-0.3
						c-0.1,0.4,0.1,0.1,0,0.5L21,3.6l0-0.2c0.1,0,0.2-0.3,0.2-0.1l-0.1,0.1l0.2-0.1l-0.1-0.1c0.1-0.2,0-0.5,0.1-0.4
						c0,0,0.1,0,0.1,0.2c0,0,0,0,0,0C21.5,3,21.5,2.9,21.6,3c0,0.1,0,0.4,0,0.5c0.1-0.3,0.2-0.1,0.3-0.4c0,0.1,0,0.3,0,0.3l0.1-0.3
						c0,0.1,0,0.1,0,0.3c0.1,0.1,0-0.5,0.1-0.3c0,0,0,0.1,0,0.1c0.1,0.1,0.3-0.1,0.4,0c0,0.4-0.1,0.1-0.1,0.4
						c0.2-0.1,0.4-0.4,0.6-0.3l0,0c0.1-0.5,0.1,0.3,0.2,0c0,0,0,0.3,0,0.2c0.1,0.1,0.3-0.1,0.5-0.3l0,0.1c0.1,0.1,0.2,0.1,0.3,0.2
						c0-0.1,0.1-0.1,0.1-0.3C24,4,24.3,2.9,24.5,3.5c0,0-0.1,0.1,0,0.1l0.2-0.1c0-0.2,0-0.1,0-0.3c0-0.1,0.1-0.2,0.1-0.2
						c-0.1,0.1,0,0.4,0,0.5c0-0.1,0-0.1,0-0.2c0.1,0.4,0-0.5,0.2-0.2l0,0.1C25,3.1,25,3,25.1,3c0,0.3-0.1,0.1-0.1,0.3
						c0.1,0,0.2-0.5,0.2-0.2c0,0.1-0.1,0.1-0.1,0.1c0.1,0.3,0.1,0.2,0.1,0.3l0,0l0.1,0.2l0-0.1c0.1-0.7,0.2-0.1,0.4-0.6
						c-0.2,0.4,0,0.2-0.1,0.5c0,0.1,0.1,0.2,0.1,0.3c0.1-0.2,0.1,0.2,0.2-0.2c0,0.1,0.1,0,0,0.3c0.1-0.1,0-0.2,0-0.3
						c0.1-0.3,0.3,0.4,0.5,0c0.2-0.2,0.2-0.5,0.4-0.7c0,0.2-0.1,0.4-0.1,0.4c0.1,0.1,0.1,0.1,0.2,0c0,0.1,0,0.2,0,0.3
						C27,3.6,27,3.3,27,3.5c0,0.1,0,0.3-0.1,0.4c0.1-0.1,0.2-0.3,0.2-0.3c0,0.2-0.1,0.3-0.1,0.4c0.1-0.1,0.2-0.1,0.3-0.4l0-0.1
						c0,0,0,0.2,0,0.3c-0.1,0.2-0.1-0.1-0.1-0.2l0.1-0.1c0-0.6-0.2,0.1-0.3,0L27,3l-0.1,0.3c0-0.1,0-0.3,0-0.4
						c-0.1-0.2-0.1,0.1-0.1-0.1c0,0,0-0.1,0-0.1l-0.1,0.1c0-0.1,0-0.3,0-0.2c-0.1-0.2-0.2,0.3-0.3,0l0,0c-0.2,0.1,0,0.3-0.2,0.7
						l0-0.8l0,0.3c0,0-0.1,0,0-0.2c-0.1,0.2,0,0.1,0,0.3c-0.1-0.3-0.2,0.1-0.2-0.4c0,0.2,0.1,0.2,0,0.3c0-0.5-0.1,0.1-0.2-0.2
						c0-0.3,0.1-0.1,0-0.4c-0.1,0.5-0.1-0.1-0.2,0c0,0.4-0.2,0.1-0.3,0.3c0-0.1-0.2-0.2-0.3-0.4l0-0.1c0,0.4-0.1,0.3-0.2,0.4
						c0-0.2,0-0.3,0.1-0.4l-0.1,0c0,0.1-0.1,0.2-0.1,0.2l0-0.3c-0.1,0-0.2,0.3-0.3,0.1c0,0.3,0.1,0.7-0.1,0.9c0-0.1,0-0.4,0.1-0.4
						c0,0,0,0.1-0.1,0.1l0.1-0.2c-0.1-0.1,0,0.2-0.1,0.2c0-0.2,0-0.1,0-0.3c0,0,0,0.1,0.1,0c0,0-0.1-0.2-0.1-0.3
						c0,0.1,0,0.3-0.1,0.3c-0.1,0,0-0.2-0.1-0.3c0,0.1-0.1,0-0.1,0.3c0,0,0-0.1,0-0.2c-0.1,0.1-0.2,0-0.2,0.3l0,0c0,0,0,0,0,0
						c0,0,0,0,0,0l0,0c-0.2,0.3-0.3-0.2-0.5-0.1l0-0.1c-0.1,0.1-0.2,0.1-0.3,0.3c0,0-0.1-0.2,0-0.3c-0.1,0.1-0.1,0.2-0.2,0
						c0.1-0.2,0-0.2,0.1-0.1c-0.1-0.1-0.1-0.3-0.2,0c0.1-0.3-0.1-0.3-0.1-0.3l0.1,0.2c-0.1,0-0.1,0-0.1,0l0-0.3
						c-0.2-0.4-0.4,0.7-0.5,0c-0.1,0.2,0.1,0.2,0,0.4c-0.1-0.1-0.2-0.5-0.2-0.5c-0.1-0.2-0.2,0.5-0.3,0.3c0,0.1,0,0.4-0.1,0.5
						c-0.1,0-0.1-0.5,0-0.6c0,0,0,0,0,0.1c0,0,0.1-0.1,0-0.2l0,0.1c0-0.1-0.2-0.1-0.1-0.3c-0.1,0.1,0,0.2,0,0.3
						c-0.1-0.2-0.2,0-0.3-0.1c0,0.1,0,0.2,0,0.2c-0.2-0.2-0.1,0.2-0.2,0.3c-0.1-0.2,0.1-0.4-0.1-0.3c-0.1-0.1,0-0.3,0-0.4
						c-0.1,0.2-0.2-0.2-0.3-0.2l0.1-0.1c0,0.1-0.1,0.1-0.1,0l0,0.2c0,0-0.1,0-0.1-0.1c0,0.2,0,0.4-0.1,0.6c0-0.1-0.1,0.1-0.1-0.2
						c0.1,0.1,0-0.3,0.1-0.4c0,0-0.1,0-0.1,0c0,0,0-0.1,0-0.1C20.1,1,20.1,1.6,20,1.6c0-0.2,0-0.3,0-0.3c0.1,0,0,0.3-0.1,0.4
						c-0.1-0.1-0.1,0.1-0.2,0.1l0.1,0.1c0,0.2-0.1,0.1-0.1,0.2c0-0.1,0.1-0.1,0-0.2c-0.1,0.3-0.1-0.3-0.3-0.1c0-0.1,0-0.3,0-0.4
						c-0.1,0.2-0.1-0.3-0.2-0.1c0,0.2,0,0.2-0.1,0.4l0.2-0.2l-0.1,0.3c0.1,0,0.1-0.1,0.2-0.1c-0.1,0.2-0.1,0.1,0,0.3
						c-0.1-0.4-0.2,0.2-0.2,0l0-0.6c-0.1-0.3-0.3,0.3-0.4,0.1l0.1,0.1c0,0.2-0.1,0-0.2,0.1c0-0.2,0-0.3,0-0.4c0,0.1-0.1,0-0.2,0.4
						l-0.1-0.3C18.1,1.4,18,2.1,17.9,2c0.1-0.2,0-0.4,0.1-0.5c0,0-0.1,0-0.1,0.1c0-0.1-0.1,0.3-0.2,0.1c0,0.1,0,0.3-0.1,0.3
						c0,0,0-0.1,0-0.1c0,0.1-0.1,0.1-0.1,0.3c-0.1-0.6-0.4,0-0.5-0.5c-0.1,0.1-0.2,0.1-0.3,0.1c0-0.1,0-0.1,0-0.1
						c-0.1-0.2-0.1,0.6-0.2,0.3c-0.1-0.3,0.1-0.2,0.1-0.3c0-0.6-0.2,0.1-0.3-0.3l0,0c-0.1-0.2-0.2,0.2-0.3,0.2c0,0,0-0.1,0-0.1
						c-0.1,0.3-0.3,0.4-0.4,0.5c0.1-0.3,0.1-0.1,0.1-0.4c-0.1,0,0,0.4-0.1,0.5c0-0.1-0.1-0.3-0.1-0.5l0.1,0c0-0.4-0.1,0-0.2-0.1
						l0-0.2c-0.2,0-0.2,0.4-0.3,0.4l0,0.1c-0.1,0.4-0.1-0.2-0.2,0.1l0-0.4c-0.1,0.1-0.2,0.4-0.3,0.4c0.1-0.3,0.2-0.4,0.3-0.6
						c-0.1,0-0.2,0-0.2,0.2c0,0,0.1-0.1,0.1-0.1c-0.1,0.3-0.2,0.5-0.3,0.4c0.1-0.8-0.3-0.2-0.3-0.8C13.9,1.4,13.7,1,13.5,1
						c0,0.6-0.1,0-0.1,0.6c-0.1,0-0.1,0-0.1,0l-0.1-0.4c0-0.2,0.1-0.1,0.1-0.3c-0.1-0.1,0-0.3-0.1-0.4c0,0.2-0.1,0.3-0.1,0.2L13.1,1
						c-0.2,0.3-0.1-0.5-0.3-0.2l0.1-0.2c-0.1,0.1-0.3,0-0.4,0.5c0-0.1,0-0.2,0-0.3c-0.2-0.1-0.5,0.5-0.6,0.2l0-0.1
						c0,0-0.1,0.3-0.1,0.1c0-0.1,0-0.1,0-0.2c0,0.1-0.1,0.3-0.2,0.2l0.1-0.2c-0.2-0.2-0.3,0.4-0.5,0.5c0-0.4-0.1-0.6-0.2-0.7l0-0.1
						c-0.2-0.1-0.4,0.3-0.7,0.5c-0.1-0.5-0.5-0.2-0.7-0.5c0,0.1,0,0.3-0.1,0.4c0-0.1-0.2,0.3-0.1-0.1l0,0c0-0.4-0.1-0.3-0.2-0.3
						l0,0.5C8.9,0.3,8.5,1.3,8.4,0.6C8.4,0.7,8.3,0.7,8.2,0.8l0-0.3C8.1,0.5,8,0.4,7.9,0.5l0.1-0.2c-0.1,0-0.2,0.8-0.3,0.8l0-0.4
						c-0.2,0-0.3-0.4-0.5,0c0-0.1,0-0.2,0.1-0.2c-0.1,0-0.3-0.3-0.3,0.3c0-0.4-0.2,0-0.3,0.1l0-0.3C6.5,0.9,6.5,1,6.3,1.1
						c0,0,0-0.2,0-0.2C6.3,0.8,6.3,1.2,6.2,1.1l0.1-0.2C6.1,0.9,6.1,1,6.1,1.2C6,1.3,5.9,1.1,5.9,0.8c0,0.2-0.1,0.4-0.1,0.3
						c0-0.1,0-0.2,0-0.2C5.7,0.7,5.6,1.2,5.5,1c0-0.1,0-0.1,0-0.2c0.1,0,0.2,0,0.2,0.1c0-0.3-0.1-0.3,0-0.7C5.6,0.4,5.5,0.8,5.4,0.7
						c0,0,0,0,0-0.1l0,0c0,0,0,0-0.1,0c0,0,0-0.1-0.1-0.1c0-0.2-0.1-0.1-0.2-0.1c0,0.3-0.1,0.2,0,0.5c0,0,0,0,0,0c0,0,0,0,0,0
						c0,0,0,0,0,0c0,0,0.1,0,0.1,0c0,0.1-0.1,0.3-0.1,0.1C5.1,1.1,5,1.2,5,1.3c0-0.4-0.2-0.6-0.2-0.9C4.7,0.6,4.5,0.5,4.3,1.1
						c0,0.1,0-0.2,0-0.2c0-0.1,0.1,0,0.1-0.1c-0.1,0.1-0.3,0-0.3,0.4C4,0.9,4.2,0.8,4,0.8l0-0.1C3.8,0.1,3.5,1.6,3.2,0.8
						c0,0,0,0.1,0,0.1C2.9,0.6,2.5,1.2,2.2,0.7C2.1,0.6,2,0.8,2,1l0-0.3L1.8,1C1.7,1.3,1.6,0.3,1.4,0.7l0,0.2C1.3,0.9,1.2,1,1.2,0.8
						c0,0,0,0.2-0.1,0.1l0-0.2L1,1C0.8,0.9,1,0.4,0.8,0.3C0.8,0.4,0.6,0.8,0.6,0.9c0,0,0.1,0.1,0.1,0.3L0.6,1.2c0,0.5-0.1,0.9,0,1.3
						l0.1-0.3l0,0.2l-0.1,0c0,0.2,0.1,0,0.1-0.1c0,0.1,0,0.2,0,0.3L1,2.2c0,0.2-0.1,0.4,0,0.5C1,2.4,1,2.2,1.1,2.1
						c0,0.2,0,0.4,0.1,0.2c0,0.1,0,0.2,0,0.2c0.1-0.1,0.2-0.1,0.2-0.3c0,0.3,0.2-0.1,0.2,0.4c0-0.1,0.1-0.3,0.2-0.4
						c-0.1,0.5,0.2,0,0.1,0.6C1.8,2.4,2,2.7,2.2,2.5c0,0,0,0.1,0,0.1c0.1,0,0.1,0.2,0.1,0.3c0-0.4,0.1-0.5,0.2-0.7
						c0.1,0.4-0.1,0.5-0.1,0.8c0-0.3,0.2-0.3,0.2-0.6c0,0.2,0,0.1,0.1,0.4c0-0.5,0.1-0.1,0.1-0.4c0.1,0.2,0,0.5,0.1,0.3
						C2.9,2.9,2.8,3.1,2.8,3.1z M5.3,2.4C5.3,2.4,5.3,2.4,5.3,2.4C5.3,2.4,5.2,2.4,5.3,2.4C5.2,2.4,5.2,2.4,5.3,2.4z M5.5,2.4
						C5.5,2.4,5.4,2.4,5.5,2.4C5.4,2.3,5.4,2.2,5.4,2.2C5.4,2.3,5.5,2.3,5.5,2.4z M5.2,0.4C5.2,0.4,5.2,0.4,5.2,0.4
						c0,0.1,0,0.1,0,0.1c0,0,0,0,0,0C5.2,0.5,5.2,0.5,5.2,0.4z"/>
					<path class="st0" d="M5.1,0.8C5.1,0.8,5.1,0.8,5.1,0.8C5.1,0.8,5.1,0.9,5.1,0.8C5.1,0.8,5.1,0.8,5.1,0.8
						C5.1,0.8,5.1,0.8,5.1,0.8z"/>
					<path class="st0" d="M23.7,2.4L23.7,2.4C23.7,2.4,23.7,2.5,23.7,2.4C23.7,2.5,23.7,2.5,23.7,2.4z"/>
					<polygon class="st0" points="8.3,3.1 8.3,3.1 8.3,3.1 					"/>
					<path class="st0" d="M24.8,3.5C24.8,3.5,24.8,3.5,24.8,3.5C24.8,3.5,24.8,3.5,24.8,3.5z"/>
					<path class="st0" d="M25.2,3.6l0.1,0.1C25.3,3.6,25.3,3.6,25.2,3.6z"/>
					<path class="st0" d="M25.6,3.7c0,0,0-0.1,0-0.1c0,0,0,0,0,0L25.6,3.7z"/>
					<path class="st0" d="M19.6,3.7C19.6,3.7,19.6,3.7,19.6,3.7C19.6,3.7,19.6,3.7,19.6,3.7z"/>
					<path class="st0" d="M21.4,3.1c0,0,0,0.1-0.1,0.1C21.4,3.3,21.4,3.3,21.4,3.1z"/>
					<path class="st0" d="M17.6,3.9C17.6,3.9,17.6,3.9,17.6,3.9C17.6,3.9,17.6,3.9,17.6,3.9L17.6,3.9z"/>
					<path class="st0" d="M21.3,3.3C21.3,3.3,21.3,3.3,21.3,3.3C21.3,3.2,21.3,3.2,21.3,3.3z"/>
					<path class="st0" d="M27.2,4L27.2,4C27.3,4,27.3,4,27.2,4L27.2,4z"/>
					<path class="st0" d="M27.3,3.9L27.3,3.9C27.3,3.9,27.3,3.9,27.3,3.9z"/>
					<path class="st0" d="M27.3,3.8L27.3,3.8C27.3,3.9,27.3,3.9,27.3,3.8z"/>
					<path class="st0" d="M26.7,3.8l0,0.1C26.7,3.9,26.7,3.9,26.7,3.8z"/>
					<path class="st0" d="M26.6,3.8c0,0,0.1,0.2,0.1,0.2l0-0.1C26.7,4.1,26.6,3.7,26.6,3.8z"/>
					<path class="st0" d="M26,2.5l0.1,0.1c0-0.1,0-0.3,0-0.3C26.1,2,26.2,2.6,26,2.5z"/>
					<path class="st0" d="M25.7,2.3c0.1,0,0-0.2,0-0.2C25.6,2.2,25.6,2.3,25.7,2.3z"/>
					<path class="st0" d="M22.8,2.2l0-0.3C22.8,1.9,22.8,2,22.8,2.2z"/>
					<polygon class="st0" points="22.2,3.4 22.2,3.6 22.3,3.4 					"/>
					<polygon class="st0" points="22,1.6 22,1.6 21.9,1.7 					"/>
					<path class="st0" d="M17.2,1.4l0,0.3C17.3,1.6,17.3,1.3,17.2,1.4z"/>
					<path class="st0" d="M15.1,1.6c0-0.2-0.1-0.3-0.1-0.1C15.1,1.5,15.1,1.6,15.1,1.6z"/>
					<polygon class="st0" points="9,0.6 9,0.5 9,0.6 					"/>
				</g>
			</g>
		</g>
	</g>
</g>
<g>
	<g>
		<g>
			<g>
				<g>
					<path class="st0" d="M0.9,28.3c0.1,0,0.3,0,0.2,0L0.9,28.3L0.9,28.3z"/>
					<path class="st0" d="M1.6,28c-0.2,0-0.4-0.1-0.7,0c0.3,0,0.2,0,0.6,0.1c0,0-0.1,0.1-0.2,0.1c0.1,0-0.1,0.1,0.1,0.1
						c0.3-0.1,0.3-0.1,0-0.2C1.4,28,1.5,28,1.6,28z"/>
					<path class="st0" d="M2,24.4L2,24.4C1.9,24.4,2,24.4,2,24.4z"/>
					<path class="st0" d="M2.1,22.1C2.1,22.1,2.1,22.1,2.1,22.1C2.1,22.1,2.1,22.1,2.1,22.1z"/>
					<path class="st0" d="M2.4,21.7C2.4,21.7,2.4,21.7,2.4,21.7C2.4,21.7,2.5,21.7,2.4,21.7z"/>
					<path class="st0" d="M2,24.4l0.1-0.1C2,24.3,2,24.3,2,24.4z"/>
					<path class="st0" d="M0.7,27.6C0.8,27.6,0.8,27.6,0.7,27.6C0.8,27.6,0.8,27.6,0.7,27.6C0.8,27.6,0.8,27.6,0.7,27.6z"/>
					<path class="st0" d="M2.3,25.4L2.3,25.4c0,0,0.1,0,0.1,0L2.3,25.4z"/>
					<path class="st0" d="M2.3,26.1c0,0-0.3,0-0.4,0c0.1,0,0.2,0,0.2,0C2.2,26.1,2.3,26.1,2.3,26.1z"/>
					<path class="st0" d="M1.9,27.3L1.9,27.3C1.9,27.4,1.9,27.4,1.9,27.3z"/>
					<path class="st0" d="M2.3,24.8c0,0,0.1,0,0.1,0C2.4,24.8,2.3,24.8,2.3,24.8z"/>
					<path class="st0" d="M-0.4,3.5C-0.4,3.5-0.4,3.5-0.4,3.5C-0.4,3.5-0.4,3.5-0.4,3.5z"/>
					<path class="st0" d="M0.9,2.5L0.9,2.5c0.1,0,0.1,0,0.2,0L0.9,2.5z"/>
					<path class="st0" d="M2.8,21C2.8,21,2.8,21,2.8,21C2.8,21,2.8,21,2.8,21z"/>
					<path class="st0" d="M2.4,14.5c-0.2,0.1-0.3-0.1-0.6,0C1.9,14.5,2.2,14.6,2.4,14.5z"/>
					<path class="st0" d="M0.8,27.5C0.8,27.5,0.8,27.5,0.8,27.5C0.8,27.5,0.8,27.5,0.8,27.5z"/>
					<path class="st0" d="M1.8,14.5C1.8,14.5,1.8,14.5,1.8,14.5L1.8,14.5C1.8,14.5,1.8,14.5,1.8,14.5z"/>
					<path class="st0" d="M2.6,19.4c0,0-0.1,0-0.1,0C2.5,19.4,2.5,19.4,2.6,19.4z"/>
					<path class="st0" d="M2.2,20.6L2.2,20.6C2.2,20.6,2.2,20.6,2.2,20.6z"/>
					<path class="st0" d="M2.1,18.7C2.2,18.7,2.2,18.7,2.1,18.7C2.1,18.7,2.1,18.7,2.1,18.7C2.2,18.7,2.2,18.7,2.1,18.7z"/>
					<path class="st0" d="M2.1,18.1C2.1,18.1,2.1,18.1,2.1,18.1C2.1,18.1,2.1,18.1,2.1,18.1L2.1,18.1z"/>
					<path class="st0" d="M-0.2,5.5c0.1,0,0.2,0,0.3,0C-0.2,5.4-0.3,5.3-0.2,5.5z"/>
					<path class="st0" d="M0.9,27.5c-0.1,0-0.1,0-0.1,0c0,0,0,0,0,0C0.8,27.6,0.9,27.6,0.9,27.5z"/>
					<path class="st0" d="M-0.1,18.8l0-0.1C-0.1,18.7-0.1,18.7-0.1,18.8z"/>
					<path class="st0" d="M-0.1,10.2L-0.1,10.2C-0.1,10.1-0.1,10.2-0.1,10.2z"/>
					<path class="st0" d="M-0.1,18.4c0.1,0,0.2,0,0.2-0.1c0,0,0,0-0.1,0L-0.1,18.4z"/>
					<path class="st0" d="M0,5.4C0,5.4,0,5.4,0,5.4C0,5.4,0,5.4,0,5.4z"/>
					<path class="st0" d="M-0.7,4.7c0,0.1,0.4,0,0.6,0.1C0,4.9-0.4,4.9-0.6,4.9C-0.5,5-0.1,5-0.1,5.1c-0.1,0-0.1,0-0.2,0
						c0.3,0.1,0,0.2,0.4,0.3c0,0-0.1,0-0.1,0c0.2,0,0.4,0,0.5,0c0,0,0.2,0.1,0,0.1c0,0-0.1,0-0.2,0l0.1,0C0.1,5.5,0.3,5.4,0.1,5.4
						c0.1,0.1,0.4,0.2,0.3,0.3C0.1,5.7,0.3,5.5,0,5.6l0.1-0.1c-0.5,0.1,0-0.1-0.5,0c-0.1,0.1,0.2,0.2,0.1,0.3c0.2,0,0.3,0,0.5,0
						C0.5,6.1-0.7,6-0.3,6.2c0.2,0,0.7,0,0.4,0.1l-0.4,0c0,0.1,0.6,0.1,0.3,0.2c-0.2,0-0.1-0.1-0.2-0.1c-0.3,0.1,0.2,0.1,0.2,0.1
						l-0.3,0C-0.2,6.7,0.1,6.9,0.2,7c-0.1,0-0.2,0-0.3,0c0.2,0.2,0,0.4-0.2,0.6l0.3,0.1c0,0-0.1,0-0.2,0c-0.1,0.1,0.2,0,0.3,0
						c0,0-0.2,0.1-0.3,0C0,8,0.3,8.2,0,8.4l-0.1,0c-0.1,0.1,0.6,0.1,0.3,0.2l-0.1,0C0.1,8.8,0.4,9.1-0.1,9.2c0.4,0-0.2,0.2,0.4,0.2
						C0,9.6-0.1,9.6-0.3,9.8c0,0.1,0.4,0.1,0.4,0.1l-0.3,0L0.2,10l-0.4,0.1l0.1,0.1c0,0,0.1-0.1,0.2-0.1c0.1,0.1-0.2,0.2-0.4,0.2
						L0,10.5c-0.1,0-0.2,0-0.2-0.1c0.3,0.1-0.3,0,0,0.1c0.1,0,0.2,0,0.2,0c-0.2,0.1-0.2,0.2-0.1,0.3l-0.2,0c0,0.2,0.1,0.3,0.1,0.5
						c0.1-0.1,0.5-0.1,0.5,0l-0.3,0c0.2,0,0.1-0.1,0.4,0c0,0.1-0.4,0.1-0.5,0L0,11.5c-0.1,0-0.1,0-0.3,0c0.2,0-0.3,0.2,0,0.2l-0.1,0
						c0,0.2,0.1,0.3,0.1,0.4c0.3,0,0.2,0.1,0.4,0.1c-0.1,0.1-0.3,0.2-0.3,0.4c0.1,0.1,0.2,0,0.4,0.1c-0.3,0-0.2,0.1-0.4,0.1
						c0,0.2,0.1,0.2,0.3,0.4c0.1,0,0.1-0.1,0.2,0c0,0-0.1,0.1-0.2,0.1l0,0c0.4,0.2-0.7,0.5-0.2,0.7l0,0l0.3,0.2c0,0.1-0.2,0-0.4,0
						c0.4,0.2-0.1,0.3,0.2,0.5c-0.8,0.2,0.1,0.5-0.4,0.6l0.2,0c0.2,0-0.1,0.1-0.1,0.1c0.1,0,0.2-0.1,0.3,0c0.2,0.4-0.2,0.8-0.4,1.2
						c0,0.1,0.9,0.1,0.5,0.2l-0.3,0c0.4,0.3,0,0.6,0.3,0.9c-0.1,0-0.2,0-0.2,0c-0.2,0.1,0,0.2,0.2,0.2c0,0-0.2,0-0.3,0
						c-0.1,0.1,0.3,0.1,0.1,0.2c0,0-0.1,0-0.1,0c0.1,0,0,0.2,0.3,0.1c-0.1,0.1,0.1,0.2,0,0.3c0.3,0-0.1,0.2,0.3,0.2
						c-0.5,0-0.4,0.2-0.1,0.3c-0.1,0-0.1,0.1-0.3,0c0,0.1,0.1,0.1,0.3,0.1c-0.5,0.2,0.4,0.3-0.2,0.4c0.2,0.2,0.4,0.4,0.5,0.6
						c-0.5,0-0.1-0.2-0.5-0.2c0.2,0.2,0.6,0.3,0.5,0.5c-0.1,0.1-0.2,0-0.3,0c0.2,0.2,0,0.4,0.2,0.5c0,0-0.1,0-0.1,0
						c0,0-0.1,0.1,0.1,0.1l-0.1,0c0.3-0.1,0.6,0.1,0.8,0.1c-0.6,0-0.1,0.2-0.9,0.1c0,0,0.1,0,0.3,0c0,0-0.1,0-0.3,0
						c0.1,0.1,0.3,0.1,0.3,0.2c-0.1,0-0.1,0-0.3,0c0.2,0.1,0.4,0.1,0.3,0.2c-0.1,0-0.1,0-0.1,0c0,0.2,0.5,0.3,0.3,0.4
						c-0.4,0-0.1,0.1-0.5,0.1l0.1,0.1l0.2,0c0,0.1,0.3,0.1,0.1,0.2L0.7,22l0.1,0.2l0.1-0.1c0.2,0.1,0.5,0,0.4,0.1c0,0,0,0.1-0.2,0.1
						c0,0,0,0,0,0c0.1,0,0.2,0.1,0.2,0.1c-0.1,0-0.4,0-0.5,0c0.3,0,0.1,0.2,0.4,0.2c-0.1,0-0.3,0-0.3,0l0.3,0c-0.1,0-0.1,0-0.3,0
						c0,0.1,0.5-0.1,0.3,0.1c0,0-0.1,0-0.1,0c-0.1,0.1,0.2,0.3,0,0.4c-0.4,0-0.1-0.1-0.4-0.1C0.7,23.4,1,23.6,1,23.7l0,0
						c0.5,0-0.3,0.1,0,0.2c0,0-0.3,0-0.2,0c-0.1,0.1,0.1,0.2,0.3,0.4l-0.1,0c-0.1,0.1-0.1,0.2-0.1,0.3c0.1,0,0.1,0.1,0.3,0
						c-0.8,0.3,0.4,0.4-0.2,0.7c0,0-0.1-0.1-0.1,0l0.1,0.2c0.2,0,0.1,0,0.3-0.1c0.1,0,0.2,0.1,0.2,0.1c-0.2-0.1-0.4,0-0.5,0
						c0.1,0,0.1,0,0.2,0c-0.4,0.1,0.5,0,0.2,0.1l-0.1,0c0.1,0,0.2,0.1,0.2,0.1c-0.3,0-0.1,0-0.3,0c0,0.1,0.5,0.1,0.2,0.2
						c-0.1,0-0.1-0.1-0.2-0.1C0.9,25.9,1,25.9,0.9,26l0,0l-0.1,0.1l0.1,0c0.7,0.1,0.1,0.2,0.6,0.3c-0.4-0.1-0.3,0-0.6,0
						c-0.1,0-0.2,0.1-0.3,0.1c0.2,0.1-0.2,0.1,0.2,0.2c-0.1,0,0,0.1-0.3,0.1c0.1,0.1,0.2,0,0.3,0c0.3,0.1-0.4,0.3,0.1,0.4
						c0.2,0.1,0.5,0.2,0.7,0.3c-0.2,0-0.4,0-0.4,0c-0.1,0.1-0.1,0.1,0,0.2c-0.1,0-0.2,0-0.3,0c0,0.1,0.4,0,0.2,0.1
						c-0.1,0-0.3,0-0.4,0c0.1,0.1,0.3,0.1,0.4,0.2c-0.2,0-0.3,0-0.4-0.1c0.1,0.1,0.2,0.2,0.4,0.2l0.1-0.1c0,0-0.2,0-0.3,0
						c-0.2-0.1,0.1-0.1,0.2-0.1l0.1,0c0.6-0.1-0.1-0.2-0.1-0.3l0.4,0l-0.3-0.1c0.1,0,0.3,0,0.4,0c0.2-0.1-0.1-0.1,0.1-0.1
						c0,0,0.1,0,0.1,0l-0.1-0.1c0.1,0,0.3,0,0.2,0c0.2-0.1-0.3-0.2,0-0.2l0,0c-0.1-0.2-0.3,0-0.7-0.1l0.8-0.1l-0.3,0
						c0,0,0-0.1,0.2,0c-0.2-0.1-0.1,0-0.3,0c0.3-0.1-0.1-0.2,0.3-0.3c-0.2,0-0.2,0.1-0.3,0c0.5,0-0.1-0.1,0.1-0.2
						c0.3,0,0.1,0.1,0.4,0c-0.5,0,0.1-0.2,0-0.2c-0.4,0-0.2-0.1-0.3-0.2c0.1,0,0.2-0.2,0.3-0.3l0.1,0c-0.4,0-0.3-0.1-0.4-0.2
						c0.2,0,0.3,0,0.4,0l0-0.1c-0.1,0-0.2,0-0.2-0.1l0.3,0c0-0.1-0.3-0.2-0.1-0.3c-0.3,0-0.7,0.1-0.9,0c0.1,0,0.4,0,0.4,0
						c0,0-0.1,0-0.1-0.1l0.2,0c0.1-0.1-0.2,0-0.2-0.1c0.2,0,0.1,0,0.3,0c0,0-0.1,0,0,0.1c0-0.1,0.1-0.1,0.3-0.1c-0.1,0-0.3,0-0.3,0
						c0-0.1,0.2,0,0.3-0.1c-0.1,0,0-0.1-0.3-0.1c0,0,0.1,0,0.2,0c-0.1,0,0-0.2-0.4-0.2l0,0c0,0,0,0,0,0c0,0,0,0,0,0l0,0
						c-0.3-0.2,0.2-0.3,0-0.5l0.1,0c-0.1-0.1-0.1-0.2-0.3-0.3c0,0,0.2-0.1,0.3-0.1c-0.1-0.1-0.2-0.1,0-0.2c0.2,0.1,0.2,0,0.1,0.1
						c0.1-0.1,0.2-0.1,0-0.2c0.3,0,0.3-0.1,0.2-0.1l-0.2,0.1c0,0,0-0.1,0-0.1l0.3,0c0.4-0.2-0.7-0.3,0-0.5c-0.2,0-0.2,0.1-0.4,0.1
						c0-0.1,0.5-0.2,0.5-0.2c0.2-0.1-0.5-0.1-0.4-0.2c-0.1,0-0.4,0-0.5,0c0-0.1,0.5-0.1,0.6-0.1c0,0,0,0-0.1,0c0,0,0.1,0.1,0.2,0
						l-0.1,0c0.1,0,0.1-0.2,0.3-0.1c-0.1-0.1-0.2,0-0.3,0c0.2-0.1,0-0.2,0.1-0.3c-0.1,0-0.2,0-0.2,0c0.1-0.2-0.2-0.1-0.3-0.2
						c0.2-0.1,0.4,0,0.3-0.1c0.1-0.1,0.3,0,0.4,0c-0.2-0.1,0.1-0.2,0.2-0.3l0.1,0.1c-0.1,0-0.1-0.1-0.1-0.1l-0.2,0
						c0,0,0-0.1,0.1-0.1c-0.2,0-0.4,0-0.6,0C2.3,21.1,2,21,2.3,21c-0.1,0.1,0.3,0,0.4,0.1c0,0,0,0,0-0.1c0,0,0.1,0,0.1,0
						c0.3-0.1-0.4-0.1-0.4-0.2c0.2,0,0.3,0,0.3-0.1c0,0.1-0.3,0-0.4,0c0.1-0.1-0.1-0.1-0.1-0.1l-0.1,0.1c-0.2,0-0.2-0.1-0.2-0.1
						c0.1,0,0.1,0.1,0.2,0c-0.3-0.1,0.3-0.2,0.1-0.3c0.1,0,0.3,0,0.4-0.1c-0.2-0.1,0.2-0.1,0-0.2c-0.2,0-0.2,0-0.4,0l0.2,0.2L2,20.1
						c0,0.1,0.2,0.1,0.1,0.1c-0.2-0.1-0.1,0-0.3,0c0.4-0.1-0.2-0.1,0-0.2l0.6,0c0.3-0.1-0.3-0.2-0.2-0.4l-0.1,0.1
						c-0.2,0,0-0.1-0.1-0.2c0.2,0,0.3,0,0.4-0.1c-0.1,0,0-0.1-0.4-0.1l0.3-0.1C2.4,19,1.7,19,1.8,18.9c0.2,0,0.4,0,0.5,0.1
						c0,0,0-0.1-0.1-0.1c0.1,0-0.3-0.1-0.1-0.2c-0.1,0-0.3,0-0.3-0.1c0,0,0.1,0,0.1,0c-0.1,0-0.1-0.1-0.4,0c0.6-0.2-0.1-0.4,0.5-0.5
						C2,18,1.9,17.9,1.9,17.8c0.1,0,0.1,0,0.1,0c0.2-0.1-0.6-0.1-0.4-0.2c0.3-0.1,0.2,0.1,0.3,0c0.6,0-0.1-0.2,0.3-0.3l0,0
						C2.5,17.3,2,17.2,2,17.1c0,0,0.1,0,0.1,0c-0.3-0.1-0.4-0.2-0.5-0.3c0.3,0,0.1,0,0.4,0c0,0-0.4,0-0.5-0.1c0.1,0,0.3-0.1,0.5-0.1
						l0,0.1c0.4-0.1,0-0.1,0-0.2l0.2,0c-0.1-0.1-0.4-0.1-0.4-0.3l-0.1,0c-0.4-0.1,0.2-0.1-0.1-0.2l0.4,0c-0.1-0.1-0.4-0.2-0.5-0.3
						C1.8,15.8,2,16,2.2,16c0-0.1,0-0.2-0.2-0.2c0,0,0.1,0,0.1,0.1c-0.3-0.1-0.5-0.1-0.5-0.3c0.8,0,0.2-0.3,0.8-0.4
						c-0.3-0.2,0.1-0.4,0.1-0.6c-0.6,0.1,0-0.1-0.6,0c0-0.1,0-0.1,0-0.1l0.4-0.2c0.2,0,0.1,0,0.3,0c0-0.1,0.3-0.1,0.4-0.1
						c-0.2,0-0.3,0-0.2-0.1l-0.3,0.1c-0.3-0.2,0.5-0.2,0.2-0.3l0.2,0c-0.1-0.1,0-0.3-0.5-0.4c0.1,0,0.2,0,0.3,0
						c0.1-0.2-0.5-0.4-0.2-0.6l0.1,0c0,0-0.3-0.1-0.1-0.1c0.1,0,0.1,0,0.2,0c-0.1,0-0.3-0.1-0.2-0.1l0.2,0c0.2-0.2-0.4-0.3-0.5-0.4
						c0.4,0,0.6-0.2,0.6-0.2l0.1,0c0-0.2-0.4-0.4-0.6-0.6c0.5-0.1,0.2-0.4,0.4-0.7c-0.1,0-0.3,0-0.4,0c0.1-0.1-0.3-0.1,0.1-0.1l0,0
						c0.4,0,0.3-0.1,0.3-0.2l-0.5,0c0.8-0.2-0.3-0.5,0.4-0.7c-0.1,0-0.1-0.1-0.3-0.2l0.3,0c0.1-0.1,0.1-0.2,0-0.4l0.2,0
						c0-0.1-0.8-0.1-0.8-0.2l0.4,0c0-0.2,0.4-0.3,0-0.5c0.1,0,0.2,0,0.2,0c0-0.1,0.3-0.3-0.3-0.3c0.4,0,0-0.2-0.1-0.3l0.3,0
						C1.8,8,1.7,8,1.6,7.9c0,0,0.2,0,0.2,0c0.1-0.1-0.3-0.1-0.1-0.2l0.2,0c0-0.1-0.1-0.1-0.3-0.1C1.4,7.6,1.6,7.5,1.9,7.5
						c-0.2,0-0.4,0-0.3-0.1c0.1,0,0.2,0,0.2,0c0.2-0.2-0.3-0.2-0.1-0.3c0.1,0,0.1,0,0.2,0c0,0.1,0,0.2,0,0.2c0.3,0,0.3-0.1,0.7,0
						C2.3,7.2,1.9,7.1,2,7c0,0,0,0,0.1,0l0,0c0,0,0,0,0-0.1c0,0,0.1,0,0.1-0.1c0.2,0,0.1-0.1,0.1-0.2C2,6.7,2,6.6,1.8,6.7
						c0,0,0,0,0,0c0,0,0,0,0,0c0,0,0,0,0,0c0,0,0,0.1,0,0.1c-0.1,0-0.3-0.1-0.1-0.1c-0.2,0-0.4,0-0.5-0.1c0.4-0.1,0.6-0.2,0.8-0.2
						C2,6.3,2,6.1,1.5,6C1.4,6,1.6,6,1.7,6c0.1,0,0,0,0.1,0.1C1.7,6,1.8,5.8,1.4,5.8c0.2-0.1,0.3,0,0.3-0.1l0.1,0
						c0.6-0.3-1-0.4-0.2-0.7c0,0-0.1,0-0.1,0C1.8,4.7,1.1,4.3,1.6,4c0.1-0.1-0.1-0.1-0.3-0.2l0.3,0L1.3,3.7C1,3.5,2,3.4,1.5,3.2
						l-0.2,0c0-0.1-0.1-0.2,0.1-0.2c0,0-0.2,0-0.1,0l0.2,0L1.2,2.9c0.1-0.1,0.6,0,0.7-0.2C1.8,2.6,1.4,2.5,1.3,2.5
						c0,0-0.1,0.1-0.3,0.1L1,2.5c-0.5,0-0.9,0-1.3,0.1L0,2.8l-0.2,0l0-0.1c-0.2,0.1,0,0.1,0.1,0.1c-0.1,0-0.2,0-0.2,0.1L0,3
						c-0.2,0-0.4,0-0.5,0C-0.2,3.1,0,3,0.1,3c-0.2,0.1-0.4,0-0.2,0.1c-0.1,0-0.2,0-0.2,0c0.1,0,0.1,0.1,0.3,0.2
						c-0.3,0.1,0.1,0.2-0.4,0.2C-0.3,3.5,0,3.5,0,3.6c-0.5-0.1,0,0.2-0.6,0.2C-0.1,3.8-0.4,4-0.1,4.1c0,0-0.1,0-0.1,0
						c0,0.1-0.2,0.1-0.3,0.1c0.4,0,0.5,0.1,0.7,0.1c-0.4,0.1-0.5,0-0.8,0c0.3,0,0.3,0.1,0.6,0.1c-0.2,0.1-0.1,0.1-0.4,0.1
						c0.5,0,0.1,0.1,0.4,0.1c-0.2,0.1-0.5,0-0.3,0.1C-0.5,4.8-0.7,4.7-0.7,4.7z M0.2,7C0.2,7,0.2,7,0.2,7C0.2,7,0.2,7,0.2,7
						C0.2,7,0.2,7,0.2,7z M0.3,7.2C0.3,7.2,0.3,7.2,0.3,7.2c0.1-0.1,0.2-0.1,0.2-0.1C0.4,7.2,0.3,7.2,0.3,7.2z M2.2,6.8
						C2.2,6.8,2.2,6.8,2.2,6.8c-0.1,0-0.1,0-0.1,0c0,0,0,0,0,0C2.1,6.8,2.2,6.8,2.2,6.8z"/>
					<path class="st0" d="M1.8,6.7C1.8,6.7,1.8,6.7,1.8,6.7C1.8,6.7,1.8,6.7,1.8,6.7C1.8,6.7,1.8,6.7,1.8,6.7
						C1.8,6.7,1.8,6.7,1.8,6.7z"/>
					<path class="st0" d="M1.9,24.4L1.9,24.4C1.9,24.4,1.9,24.4,1.9,24.4C1.9,24.4,1.9,24.4,1.9,24.4z"/>
					<polygon class="st0" points="-0.2,9.9 -0.1,9.9 -0.2,9.9 					"/>
					<path class="st0" d="M1,25.5C1,25.5,0.9,25.5,1,25.5C0.9,25.5,1,25.5,1,25.5z"/>
					<path class="st0" d="M0.9,26L0.9,26C0.9,26,0.9,26,0.9,26z"/>
					<path class="st0" d="M0.8,26.3c0,0,0.1,0,0.1,0c0,0,0,0,0,0L0.8,26.3z"/>
					<path class="st0" d="M0.3,20.7C0.3,20.7,0.3,20.7,0.3,20.7C0.2,20.6,0.3,20.6,0.3,20.7z"/>
					<path class="st0" d="M1,22.3c-0.1,0-0.1,0-0.1-0.1C0.9,22.3,0.9,22.3,1,22.3z"/>
					<path class="st0" d="M-0.1,18.8C-0.1,18.8-0.1,18.8-0.1,18.8C-0.1,18.8-0.1,18.8-0.1,18.8L-0.1,18.8z"/>
					<path class="st0" d="M0.9,22.2C0.8,22.2,0.8,22.3,0.9,22.2C0.9,22.3,0.9,22.2,0.9,22.2z"/>
					<path class="st0" d="M0.7,27.9L0.7,27.9C0.7,27.9,0.7,27.9,0.7,27.9L0.7,27.9z"/>
					<path class="st0" d="M0.8,27.9L0.8,27.9C0.8,27.9,0.8,27.9,0.8,27.9z"/>
					<path class="st0" d="M0.9,27.9L0.9,27.9C0.8,27.9,0.8,27.9,0.9,27.9z"/>
					<path class="st0" d="M0.8,27.4l-0.1,0C0.8,27.4,0.8,27.4,0.8,27.4z"/>
					<path class="st0" d="M0.8,27.3c0,0-0.2,0.1-0.1,0.1l0.1,0C0.6,27.4,1,27.3,0.8,27.3z"/>
					<path class="st0" d="M2,26.6L2,26.7c0.1,0,0.3-0.1,0.3,0C2.6,26.6,2,26.8,2,26.6z"/>
					<path class="st0" d="M2.2,26.2c0.1,0.1,0.2,0,0.2,0C2.3,26.2,2.3,26.2,2.2,26.2z"/>
					<path class="st0" d="M2.1,23.5l0.3,0C2.3,23.5,2.3,23.6,2.1,23.5z"/>
					<polygon class="st0" points="0.8,23.1 0.6,23.1 0.9,23.1 					"/>
					<polygon class="st0" points="2.6,22.7 2.6,22.7 2.5,22.7 					"/>
					<path class="st0" d="M2.4,18.2l-0.3,0C2.1,18.3,2.5,18.3,2.4,18.2z"/>
					<path class="st0" d="M2,16.3c0.2,0,0.3-0.1,0.1-0.1C2.1,16.2,2,16.2,2,16.3z"/>
					<polygon class="st0" points="2.3,10.4 2.4,10.4 2.4,10.4 					"/>
				</g>
			</g>
		</g>
	</g>
</g>
<g>
	<g>
		<g>
			<g>
				<g>
					<path class="st0" d="M29.6,30.1c0-0.1,0-0.3-0.1-0.2L29.6,30.1L29.6,30.1z"/>
					<path class="st0" d="M29.2,29.5c0,0.2,0,0.5,0,0.7c0-0.3,0-0.2,0-0.6c0,0,0.1,0.1,0.1,0.2c0-0.1,0.1,0.1,0.1-0.1
						c-0.1-0.2-0.2-0.2-0.2,0C29.2,29.6,29.2,29.5,29.2,29.5z"/>
					<path class="st0" d="M25.2,29.3L25.2,29.3C25.2,29.3,25.2,29.3,25.2,29.3z"/>
					<path class="st0" d="M22.8,29C22.8,29,22.8,29,22.8,29C22.8,29,22.8,29,22.8,29z"/>
					<path class="st0" d="M22.4,28.6C22.4,28.7,22.4,28.7,22.4,28.6C22.4,28.6,22.4,28.6,22.4,28.6z"/>
					<path class="st0" d="M25.2,29.3l-0.1-0.1C25.2,29.3,25.2,29.3,25.2,29.3z"/>
					<path class="st0" d="M28.8,30.4C28.8,30.3,28.8,30.3,28.8,30.4C28.8,30.3,28.8,30.3,28.8,30.4L28.8,30.4z"/>
					<path class="st0" d="M26.3,29L26.3,29c0,0,0-0.1,0-0.1L26.3,29z"/>
					<path class="st0" d="M27.1,28.9c0,0,0,0.3,0,0.4c0-0.1,0-0.2,0-0.2C27.1,29,27.1,29,27.1,28.9z"/>
					<path class="st0" d="M28.4,29.2L28.4,29.2C28.5,29.2,28.4,29.2,28.4,29.2z"/>
					<path class="st0" d="M25.7,29c0,0,0-0.1,0-0.1C25.7,28.9,25.7,28.9,25.7,29z"/>
					<path class="st0" d="M2.6,29.2C2.6,29.2,2.6,29.1,2.6,29.2C2.6,29.2,2.6,29.2,2.6,29.2z"/>
					<polygon class="st0" points="1.4,27.9 1.4,27.9 1.4,27.7 					"/>
					<path class="st0" d="M21.7,28.2L21.7,28.2C21.7,28.2,21.7,28.2,21.7,28.2z"/>
					<path class="st0" d="M14.7,27.5c0,0.3-0.2,0.3-0.1,0.6C14.6,27.9,14.8,27.6,14.7,27.5z"/>
					<path class="st0" d="M28.8,30.3C28.7,30.3,28.7,30.3,28.8,30.3C28.7,30.3,28.8,30.3,28.8,30.3z"/>
					<path class="st0" d="M14.6,28.1L14.6,28.1L14.6,28.1C14.6,28.1,14.6,28.1,14.6,28.1z"/>
					<path class="st0" d="M19.9,28.2c0,0,0,0.1,0,0.1C19.9,28.3,19.9,28.3,19.9,28.2z"/>
					<path class="st0" d="M21.2,28.7L21.2,28.7C21.2,28.7,21.2,28.7,21.2,28.7z"/>
					<path class="st0" d="M19.2,28.5C19.2,28.5,19.2,28.4,19.2,28.5C19.2,28.5,19.2,28.5,19.2,28.5C19.2,28.5,19.2,28.5,19.2,28.5z"
						/>
					<path class="st0" d="M18.5,28.4C18.5,28.4,18.5,28.4,18.5,28.4L18.5,28.4L18.5,28.4z"/>
					<path class="st0" d="M4.6,28.9c0-0.1,0-0.2,0-0.3C4.6,28.8,4.5,28.9,4.6,28.9z"/>
					<path class="st0" d="M28.8,30.2c0,0.1,0,0.1,0,0.1c0,0,0,0,0,0C28.8,30.3,28.8,30.2,28.8,30.2z"/>
					<path class="st0" d="M18.9,30.7l-0.1-0.1C18.8,30.7,18.8,30.7,18.9,30.7z"/>
					<path class="st0" d="M9.6,29.1L9.6,29.1C9.6,29.1,9.6,29.1,9.6,29.1z"/>
					<path class="st0" d="M18.4,30.6c0-0.1,0-0.2,0-0.2c0,0,0,0,0,0.1L18.4,30.6z"/>
					<path class="st0" d="M4.6,28.6L4.6,28.6L4.6,28.6z"/>
					<path class="st0" d="M3.9,29.3c0.1,0,0-0.4,0-0.6C4.1,28.7,4,29,4.1,29.2c0.1-0.1,0.1-0.4,0.2-0.4c0,0.1,0,0.1,0,0.2
						c0.1-0.3,0.2,0,0.3-0.4c0,0,0,0.1,0,0.1c0-0.2,0-0.4,0-0.5c0,0,0.1-0.2,0.1,0c0,0,0,0.1,0,0.2l0-0.1c0.1,0.3-0.1,0.1-0.1,0.4
						c0.1-0.1,0.2-0.4,0.3-0.3c0,0.3-0.2,0.1-0.1,0.4l-0.1-0.1c0.1,0.5-0.1,0,0,0.5C4.9,29.2,4.9,28.9,5,29c0-0.2,0-0.3,0-0.5
						c0.2-0.3,0.2,0.9,0.3,0.4c0-0.2,0.1-0.7,0.2-0.4l0,0.4c0.1,0,0.1-0.6,0.2-0.3c0,0.2-0.1,0.1-0.1,0.2c0.1,0.3,0.1-0.2,0.1-0.2
						l0,0.3c0.2-0.1,0.3-0.3,0.5-0.4c0,0.1,0,0.2,0,0.3c0.2-0.2,0.5,0,0.7,0.3l0.1-0.3c0,0,0,0.1,0,0.2c0.1,0.1,0-0.2,0.1-0.3
						c0,0,0.1,0.2,0,0.3c0.2-0.2,0.4-0.5,0.6-0.2l0,0.1C7.8,29,7.9,28.3,8,28.6l0,0.1c0.2,0.1,0.6-0.1,0.7,0.4
						c0.1-0.4,0.2,0.2,0.3-0.4C9.1,28.9,9,29,9.2,29.2c0.1,0,0.1-0.4,0.2-0.4l0,0.3l0.1-0.3l0,0.4l0.1-0.1c0,0,0-0.1,0-0.2
						c0.1-0.1,0.2,0.2,0.2,0.4l0.3-0.2c0,0.1-0.1,0.2-0.1,0.2c0.2-0.3,0,0.3,0.1,0.1c0-0.1,0-0.2,0-0.2c0,0.2,0.2,0.2,0.3,0.1l0,0.2
						c0.2,0.1,0.4-0.1,0.6,0c-0.1-0.1,0-0.5,0.1-0.5l0,0.3c0.1-0.2,0-0.1,0.1-0.4c0.1,0,0,0.4-0.1,0.5l0.1-0.1c0,0.1,0,0.1-0.1,0.3
						c0.1-0.2,0.1,0.3,0.2,0l0,0.1c0.2,0,0.3-0.1,0.5-0.1c0-0.3,0.1-0.2,0.2-0.4c0.1,0.1,0.2,0.3,0.4,0.3c0.1-0.1,0.1-0.2,0.1-0.4
						c0,0.3,0.1,0.3,0,0.4c0.2,0,0.2,0,0.5-0.2c0-0.1,0-0.2,0-0.2c0,0,0.1,0.1,0.1,0.2l0,0c0.3-0.3,0.5,0.8,0.7,0.3l0,0l0.2-0.2
						c0.1,0.1-0.1,0.2,0,0.3c0.3-0.4,0.3,0.1,0.6-0.1c0,0.8,0.5,0,0.6,0.5l0-0.2c0.1-0.2,0,0.1,0.1,0.2c0-0.1,0-0.2,0-0.3
						c0.4-0.1,0.8,0.4,1.2,0.6c0.1,0.1,0.2-0.9,0.4-0.4l-0.1,0.3c0.4-0.3,0.6,0.1,1-0.2c0,0.1,0,0.2-0.1,0.2c0,0.2,0.2,0,0.3-0.1
						c0,0,0,0.2,0,0.3c0,0.1,0.2-0.3,0.2,0c0,0,0,0.1,0,0.1c0.1-0.1,0.2,0.1,0.2-0.2c0.1,0.1,0.2-0.1,0.3,0.1
						c0.1-0.3,0.2,0.2,0.3-0.3c-0.1,0.4,0.2,0.4,0.3,0.2c0,0.1,0,0.1,0,0.3c0.1,0,0.2-0.1,0.2-0.3c0.1,0.6,0.4-0.4,0.4,0.3
						c0.3-0.2,0.5-0.3,0.8-0.4c-0.1,0.4-0.3,0-0.3,0.5c0.2-0.2,0.4-0.5,0.6-0.4c0,0.1-0.1,0.2-0.1,0.3c0.2-0.2,0.4,0.1,0.6-0.1
						c0,0,0,0.1-0.1,0.1c0,0,0.1,0.1,0.1-0.1l0,0.1c0-0.3,0.2-0.6,0.2-0.8c-0.1,0.6,0.2,0.2,0,0.9c0,0,0.1-0.1,0.1-0.3
						c0,0,0,0.1,0,0.3c0.1-0.1,0.1-0.3,0.2-0.3c0,0.1,0,0.1-0.1,0.2c0.1-0.2,0.2-0.4,0.3-0.3c0,0.1,0,0.1,0,0.1
						c0.2,0,0.3-0.5,0.5-0.3c-0.1,0.4,0.1,0.1,0,0.5l0.1-0.1l0-0.2c0.1,0,0.2-0.3,0.3-0.1l-0.1,0.2l0.2-0.1l-0.1-0.1
						c0.1-0.2,0-0.5,0.1-0.4c0,0,0.1,0,0.1,0.2l0,0c0.1-0.1,0.1-0.2,0.2-0.1c0,0.1,0,0.4,0,0.5c0.1-0.3,0.2-0.1,0.3-0.4
						c0,0.1,0,0.3,0,0.3l0-0.3c0,0.1,0,0.1,0,0.3c0.1,0.1,0-0.5,0.1-0.3c0,0,0,0.1,0,0.1c0.1,0.1,0.3-0.1,0.4,0
						c0,0.4-0.1,0.1-0.1,0.4c0.2-0.1,0.4-0.4,0.6-0.3l0,0c0-0.5,0.1,0.3,0.2,0c0,0,0,0.3,0,0.2c0.1,0.1,0.3-0.1,0.5-0.3l0,0.1
						c0.1,0.1,0.2,0.1,0.3,0.1c0-0.1,0.1-0.1,0-0.3c0.3,0.8,0.5-0.4,0.7,0.2c0,0-0.1,0.1,0,0.1l0.2-0.1c0-0.2,0-0.1-0.1-0.3
						c0-0.1,0.1-0.2,0.1-0.3c-0.1,0.2,0,0.4,0.1,0.5c0-0.1,0-0.1,0-0.2c0.1,0.4,0-0.5,0.1-0.2l0,0.1c0-0.1,0.1-0.2,0.1-0.2
						c0,0.3,0,0.1,0,0.3c0.1,0,0.1-0.5,0.2-0.3c0,0.1-0.1,0.1-0.1,0.2c0.1,0.3,0.1,0.2,0.2,0.3l0,0l0.1,0.1l0-0.1
						c0-0.7,0.2-0.1,0.3-0.6c-0.1,0.4,0,0.3,0,0.6c0,0.1,0.1,0.2,0.1,0.3c0-0.2,0.1,0.2,0.2-0.2c0,0.1,0.1,0,0.1,0.2
						c0.1-0.1,0-0.2,0-0.3c0.1-0.3,0.3,0.4,0.5-0.1c0.1-0.2,0.1-0.5,0.2-0.7c0.1,0.1,0,0.4,0,0.4c0.1,0.1,0.2,0.1,0.2,0
						c0,0.1,0,0.2,0.1,0.3c0.1,0,0-0.4,0.1-0.2c0,0.1,0,0.3,0,0.4c0.1-0.1,0.1-0.3,0.2-0.4c0,0.2,0,0.3,0,0.4
						c0.1-0.1,0.2-0.2,0.2-0.5l-0.1-0.1c0,0,0.1,0.2,0,0.3c0,0.2-0.1-0.1-0.1-0.2l0-0.1c-0.1-0.6-0.2,0.1-0.3,0.1l0-0.4l-0.1,0.4
						c0-0.1-0.1-0.3,0-0.4c-0.1-0.2,0,0.2-0.1-0.1c0,0,0-0.1,0-0.1l-0.1,0.1c0-0.1,0-0.3,0-0.2c-0.2-0.2-0.2,0.3-0.3,0l0,0
						c-0.2,0.2,0,0.3-0.1,0.7l-0.2-0.7l0,0.3c0,0-0.1,0-0.1-0.1c0,0.2,0,0.1,0,0.3c-0.1-0.3-0.2,0.2-0.3-0.3c0,0.2,0.1,0.2,0,0.3
						c-0.1-0.5-0.1,0.1-0.2-0.1c0-0.3,0.1-0.1,0-0.4c0,0.5-0.2-0.1-0.2,0c0,0.4-0.1,0.2-0.2,0.3c0-0.1-0.2-0.2-0.3-0.3l0-0.1
						c0,0.4-0.1,0.3-0.2,0.4c0-0.2,0-0.3,0-0.4l-0.1,0c0,0.1,0,0.2-0.1,0.2l0-0.3c-0.1,0-0.2,0.3-0.3,0.2c0,0.3,0.1,0.7,0,0.9
						c0-0.1,0-0.4,0-0.4c0,0,0,0.1-0.1,0.1l0-0.2c-0.1-0.1,0,0.2-0.1,0.2c0-0.2,0-0.1,0-0.3c0,0,0,0.1,0.1,0c-0.1,0-0.1-0.2-0.1-0.3
						c0,0.1,0,0.3,0,0.3c-0.1,0,0-0.2-0.1-0.3c0,0.1-0.1,0-0.1,0.3c0,0,0-0.1,0-0.2c0,0.1-0.2,0-0.2,0.4l0,0c0,0,0,0,0,0l0,0l0,0
						c-0.2,0.3-0.4-0.2-0.5,0l0-0.1c-0.1,0.1-0.2,0.1-0.3,0.3c0,0-0.1-0.2-0.1-0.3c-0.1,0.1-0.1,0.2-0.2,0c0.1-0.2,0-0.2,0.1-0.1
						c-0.1-0.1-0.1-0.2-0.2,0c0-0.3-0.1-0.3-0.1-0.2l0.1,0.2c-0.1,0-0.1,0-0.1,0l0-0.3c-0.2-0.4-0.4,0.7-0.5,0
						c-0.1,0.2,0.1,0.2,0,0.4c-0.1,0-0.2-0.5-0.2-0.5c-0.1-0.2-0.1,0.5-0.3,0.3c0,0.1,0,0.4-0.1,0.5c-0.1,0-0.1-0.5,0-0.6
						c0,0,0,0,0,0.1c0,0,0.1-0.1,0-0.2l0,0.1c0-0.1-0.2-0.1-0.1-0.3c-0.1,0.1,0,0.2,0,0.3c-0.1-0.2-0.2,0-0.3-0.1c0,0.1,0,0.2,0,0.2
						c-0.2-0.2-0.1,0.2-0.2,0.3c-0.1-0.2,0.1-0.4-0.1-0.3c-0.1-0.1,0-0.3,0-0.4c-0.1,0.2-0.2-0.2-0.3-0.2l0.1-0.1c0,0.1-0.1,0-0.1,0
						l0,0.2c0,0-0.1,0-0.1-0.1c0,0.2,0,0.4-0.1,0.6c0-0.1-0.2,0.1-0.1-0.2c0.1,0.1,0-0.3,0.1-0.4c0,0-0.1,0-0.1,0c0,0,0-0.1,0-0.1
						c-0.1-0.3-0.1,0.3-0.2,0.3c0-0.2,0-0.3,0-0.3c0.1,0,0,0.3-0.1,0.4c-0.1-0.1-0.1,0.1-0.2,0.1l0,0.1c0,0.2-0.1,0.1-0.2,0.2
						c0-0.1,0.1-0.1,0.1-0.2c-0.1,0.3-0.1-0.3-0.3-0.1c0-0.1,0-0.3,0-0.4c-0.1,0.2-0.1-0.3-0.2-0.1c0,0.2,0,0.2-0.1,0.4l0.2-0.1
						l-0.2,0.3c0.1,0,0.1-0.1,0.2-0.1c-0.1,0.2-0.1,0.1-0.1,0.3c0-0.4-0.2,0.2-0.3-0.1l0.1-0.6c-0.1-0.3-0.3,0.3-0.4,0.1l0,0.1
						c-0.1,0.2-0.1,0-0.2,0.1c0-0.2,0-0.3,0-0.4c0,0.1-0.1,0-0.2,0.4l0-0.3c-0.1-0.1-0.2,0.5-0.4,0.5c0.1-0.2,0-0.4,0.1-0.5
						c0,0-0.1,0-0.1,0.1c0-0.1-0.2,0.2-0.2,0.1c0,0.1-0.1,0.3-0.1,0.3c0,0,0-0.1,0-0.1c0,0.1-0.1,0.1-0.1,0.3
						c-0.1-0.6-0.4,0-0.5-0.6c-0.1,0.1-0.2,0.1-0.3,0.1c0-0.1,0-0.1,0-0.1c-0.1-0.2-0.2,0.5-0.3,0.3c0-0.3,0.1-0.2,0.1-0.3
						c0.1-0.6-0.2,0.1-0.2-0.3l0,0c0-0.2-0.2,0.2-0.3,0.2c0,0,0-0.1,0-0.1c-0.1,0.3-0.3,0.4-0.4,0.5c0.1-0.2,0.1-0.1,0.1-0.4
						c-0.1,0,0,0.4-0.2,0.5c0-0.1-0.1-0.3,0-0.5l0.1,0c0-0.4-0.1,0-0.2-0.1l0-0.2c-0.2,0-0.2,0.4-0.4,0.4l0,0.1
						c-0.2,0.4,0-0.2-0.2,0l0-0.4c-0.1,0.1-0.3,0.3-0.4,0.4c0.1-0.3,0.3-0.4,0.4-0.6c-0.1,0-0.2,0-0.3,0.2c0,0,0.1-0.1,0.1-0.1
						c-0.1,0.3-0.2,0.4-0.4,0.4c0.1-0.8-0.3-0.2-0.3-0.8c-0.3,0.2-0.4-0.2-0.7-0.2c0,0.6-0.1,0-0.2,0.6c-0.1,0-0.1,0-0.1,0l-0.1-0.4
						c0-0.2,0.1-0.1,0.1-0.3c-0.1-0.1,0-0.3-0.1-0.4c0,0.2-0.1,0.3-0.2,0.2l0.1,0.3c-0.2,0.3-0.1-0.5-0.3-0.2l0.1-0.2
						c-0.1,0.1-0.3-0.1-0.5,0.4c0-0.1,0-0.2,0-0.3c-0.2-0.1-0.6,0.4-0.7,0.1l0-0.1c0,0-0.1,0.3-0.1,0.1c0-0.1,0-0.1,0-0.2
						c0,0-0.1,0.2-0.2,0.1l0.1-0.2c-0.2-0.2-0.4,0.4-0.6,0.4c0.1-0.4-0.1-0.6-0.2-0.7l0-0.1c-0.2-0.1-0.5,0.3-0.7,0.4
						c-0.1-0.5-0.5-0.3-0.7-0.6c0,0.1,0,0.3-0.1,0.4c0-0.1-0.2,0.3-0.1-0.1l0,0c0-0.4-0.1-0.3-0.2-0.3l-0.1,0.5
						c-0.1-0.8-0.6,0.2-0.7-0.5c-0.1,0.1-0.1,0.1-0.2,0.2l0-0.3c-0.1-0.1-0.2-0.1-0.4-0.1L9,26.4c-0.1,0-0.2,0.8-0.3,0.8l0-0.4
						c-0.2,0-0.3-0.4-0.6,0c0-0.1,0-0.2,0.1-0.2c-0.1,0-0.3-0.3-0.3,0.3c0-0.4-0.2,0-0.3,0.1l0-0.3c-0.1,0.4-0.1,0.4-0.2,0.5
						c0,0,0-0.2,0-0.2c-0.1-0.2-0.1,0.3-0.2,0.1l0.1-0.2c-0.1,0-0.1,0.1-0.2,0.3c-0.1,0.1-0.2-0.1-0.2-0.3c0,0.2-0.1,0.4-0.1,0.3
						c0-0.1,0-0.2,0-0.2c-0.2-0.2-0.3,0.3-0.4,0c0-0.1,0-0.1,0-0.2c0.1,0,0.2,0,0.2,0c0-0.3-0.1-0.3,0-0.7c-0.1,0.2-0.3,0.6-0.3,0.5
						c0,0,0,0,0-0.1l0,0c0,0,0,0-0.1,0c0,0-0.1-0.1-0.1-0.1c0-0.2-0.1-0.1-0.2-0.1c0,0.3-0.1,0.2,0,0.5c0,0,0,0,0,0c0,0,0,0,0,0l0,0
						c0,0,0.1,0,0.1,0c0,0.1-0.1,0.3-0.1,0.1C6,27.1,6,27.3,6,27.4c-0.1-0.4-0.2-0.6-0.2-0.8c-0.2,0.2-0.4,0.1-0.5,0.6
						c0,0.1-0.1-0.2-0.1-0.2c0-0.1,0.1,0,0.1-0.1C5.2,27,5,26.9,5,27.3c-0.1-0.2,0.1-0.3-0.1-0.3l0-0.1c-0.3-0.6-0.5,1-0.8,0.2
						c0,0,0,0.1,0,0.1c-0.4-0.3-0.8,0.3-1.2-0.1c-0.1-0.1-0.1,0.1-0.2,0.3l-0.1-0.3l-0.1,0.4c-0.1,0.3-0.4-0.7-0.5-0.2l0.1,0.2
						c-0.1,0-0.2,0.1-0.2-0.1c0,0,0,0.2,0,0.1l0-0.2l-0.1,0.3C1.6,27.5,1.7,27,1.5,27c-0.1,0.1-0.1,0.5-0.1,0.6c0,0,0.1,0.1,0.1,0.2
						l-0.1,0.1c0.1,0.5,0.1,0.9,0.3,1.2l0.1-0.3l0.1,0.2l-0.1,0c0.1,0.2,0.1,0,0.1-0.1c0,0.1,0.1,0.2,0.1,0.2l0-0.5
						c0,0.2,0,0.4,0.1,0.5c0-0.2-0.1-0.4,0-0.5c0.1,0.2,0.1,0.4,0.1,0.2c0,0.1,0,0.2,0,0.3c0-0.1,0.1-0.1,0.1-0.3
						c0.1,0.3,0.2-0.1,0.2,0.3c0-0.1,0.1-0.4,0.1-0.4c0,0.5,0.2,0,0.2,0.6c0-0.5,0.2-0.2,0.3-0.5c0,0,0,0.1,0,0.1
						c0.1,0,0.1,0.2,0.2,0.3c0-0.4,0.1-0.5,0.1-0.7c0.1,0.4,0,0.5,0,0.8c0-0.3,0.1-0.3,0.1-0.6c0.1,0.2,0.1,0.1,0.1,0.4
						c0-0.5,0.1-0.1,0.1-0.4C3.9,29,3.8,29.2,3.9,29C4,29.2,3.9,29.3,3.9,29.3z M6.3,28.5L6.3,28.5C6.3,28.5,6.3,28.5,6.3,28.5
						C6.3,28.5,6.3,28.5,6.3,28.5z M6.5,28.5C6.5,28.4,6.5,28.4,6.5,28.5c-0.1-0.1-0.1-0.2-0.1-0.2C6.5,28.3,6.5,28.4,6.5,28.5z
						 M6.1,26.5C6.2,26.5,6.2,26.5,6.1,26.5c0,0.1,0,0.1,0,0.1l0,0C6.1,26.6,6.1,26.5,6.1,26.5z"/>
					<path class="st0" d="M6.1,26.9C6.1,26.9,6.1,26.9,6.1,26.9C6.1,26.9,6.1,26.9,6.1,26.9L6.1,26.9L6.1,26.9z"/>
					<path class="st0" d="M25.3,29.3L25.3,29.3C25.3,29.3,25.3,29.3,25.3,29.3C25.3,29.4,25.3,29.3,25.3,29.3z"/>
					<polygon class="st0" points="9.4,29.2 9.4,29.1 9.3,29.2 					"/>
					<path class="st0" d="M26.5,30.3C26.5,30.3,26.5,30.3,26.5,30.3C26.5,30.3,26.5,30.3,26.5,30.3z"/>
					<path class="st0" d="M27,30.3L27,30.3C27,30.3,27,30.3,27,30.3z"/>
					<path class="st0" d="M27.4,30.4c0,0,0-0.1,0-0.1l0,0L27.4,30.4z"/>
					<path class="st0" d="M21,30.6C21,30.6,21,30.6,21,30.6C21,30.7,21,30.7,21,30.6z"/>
					<path class="st0" d="M23,30.1c0,0,0,0.1-0.1,0.1C22.9,30.3,22.9,30.3,23,30.1z"/>
					<polygon class="st0" points="18.9,30.7 18.9,30.7 18.9,30.7 					"/>
					<path class="st0" d="M22.8,30.2C22.8,30.3,22.9,30.3,22.8,30.2C22.9,30.2,22.8,30.2,22.8,30.2z"/>
					<path class="st0" d="M29.1,30.3L29.1,30.3C29.2,30.3,29.2,30.3,29.1,30.3L29.1,30.3z"/>
					<path class="st0" d="M29.2,30.3L29.2,30.3C29.2,30.3,29.2,30.3,29.2,30.3z"/>
					<path class="st0" d="M29.2,30.2L29.2,30.2C29.2,30.3,29.2,30.3,29.2,30.2z"/>
					<path class="st0" d="M28.6,30.3l0,0.1C28.6,30.4,28.6,30.3,28.6,30.3z"/>
					<path class="st0" d="M28.4,30.3c0,0,0.1,0.2,0.2,0.1l0-0.1C28.6,30.5,28.5,30.1,28.4,30.3z"/>
					<path class="st0" d="M27.6,29.2l0.1,0.1c0-0.1-0.1-0.2,0-0.3C27.6,28.6,27.8,29.2,27.6,29.2z"/>
					<path class="st0" d="M27.2,29c0.1-0.1,0-0.2,0-0.2C27.2,28.9,27.2,28.9,27.2,29z"/>
					<path class="st0" d="M24.4,29.1l0-0.3C24.3,28.9,24.4,29,24.4,29.1z"/>
					<polygon class="st0" points="23.8,30.4 23.8,30.6 23.8,30.3 					"/>
					<polygon class="st0" points="23.5,28.6 23.5,28.5 23.4,28.6 					"/>
					<path class="st0" d="M18.7,28.2l0,0.3C18.7,28.4,18.7,28.1,18.7,28.2z"/>
					<path class="st0" d="M16.5,28.2c0-0.2,0-0.3-0.1-0.1C16.5,28.1,16.5,28.2,16.5,28.2z"/>
					<polygon class="st0" points="10.2,26.8 10.3,26.7 10.2,26.7 					"/>
				</g>
			</g>
		</g>
	</g>
</g>
<g>
	<g>
		<g>
			<g>
				<g>
					<path class="st0" d="M28.5,29.4c0.1,0,0.3,0,0.2,0L28.5,29.4L28.5,29.4z"/>
					<path class="st0" d="M29.2,29.1c-0.2,0-0.4-0.1-0.7-0.1c0.3,0,0.2,0.1,0.6,0.1c0,0-0.1,0.1-0.2,0.1c0.1,0-0.1,0.1,0.1,0.1
						c0.3-0.1,0.3-0.1,0.1-0.2C29,29.1,29.1,29.1,29.2,29.1z"/>
					<path class="st0" d="M29.6,25.4L29.6,25.4C29.6,25.4,29.6,25.4,29.6,25.4z"/>
					<path class="st0" d="M29.7,23C29.7,23,29.7,23,29.7,23C29.7,23,29.7,23,29.7,23z"/>
					<path class="st0" d="M30.1,22.6C30,22.6,30,22.6,30.1,22.6C30.1,22.6,30.1,22.6,30.1,22.6z"/>
					<path class="st0" d="M29.6,25.4l0.1-0.1C29.6,25.3,29.6,25.3,29.6,25.4z"/>
					<path class="st0" d="M28.3,28.6C28.4,28.6,28.4,28.7,28.3,28.6C28.4,28.7,28.4,28.6,28.3,28.6C28.4,28.6,28.4,28.6,28.3,28.6z"
						/>
					<path class="st0" d="M29.9,26.4L29.9,26.4c0,0,0.1,0,0.1,0L29.9,26.4z"/>
					<path class="st0" d="M29.9,27.2c0,0-0.3,0-0.4,0c0.1,0,0.2,0,0.2,0C29.8,27.2,29.9,27.2,29.9,27.2z"/>
					<path class="st0" d="M29.5,28.4L29.5,28.4C29.5,28.4,29.5,28.4,29.5,28.4z"/>
					<path class="st0" d="M29.9,25.8c0,0,0.1,0,0.1,0C30,25.8,29.9,25.8,29.9,25.8z"/>
					<path class="st0" d="M27.3,3.7C27.3,3.7,27.3,3.7,27.3,3.7C27.3,3.7,27.3,3.7,27.3,3.7z"/>
					<path class="st0" d="M28.6,2.8L28.6,2.8c0.1,0,0.1,0,0.2,0L28.6,2.8z"/>
					<path class="st0" d="M30.4,21.9C30.4,21.9,30.4,21.9,30.4,21.9C30.4,21.9,30.4,21.9,30.4,21.9z"/>
					<path class="st0" d="M30,15.2c-0.2,0.1-0.3-0.1-0.6,0C29.5,15.2,29.9,15.3,30,15.2z"/>
					<path class="st0" d="M28.4,28.6C28.4,28.6,28.4,28.6,28.4,28.6C28.4,28.6,28.4,28.6,28.4,28.6z"/>
					<path class="st0" d="M29.4,15.2C29.4,15.2,29.4,15.2,29.4,15.2L29.4,15.2C29.4,15.2,29.4,15.2,29.4,15.2z"/>
					<path class="st0" d="M30.2,20.2c0,0-0.1,0-0.1,0C30.1,20.2,30.1,20.2,30.2,20.2z"/>
					<path class="st0" d="M29.8,21.4L29.8,21.4C29.8,21.4,29.8,21.4,29.8,21.4z"/>
					<path class="st0" d="M29.8,19.5C29.8,19.5,29.8,19.5,29.8,19.5C29.8,19.5,29.8,19.5,29.8,19.5C29.8,19.5,29.8,19.5,29.8,19.5z"
						/>
					<path class="st0" d="M29.8,18.9C29.7,18.9,29.7,18.9,29.8,18.9C29.7,18.9,29.7,18.9,29.8,18.9L29.8,18.9z"/>
					<path class="st0" d="M27.5,5.8c0.1,0,0.2,0,0.3,0C27.5,5.8,27.4,5.7,27.5,5.8z"/>
					<path class="st0" d="M28.5,28.6c-0.1,0-0.1,0-0.1,0c0,0,0,0,0,0C28.4,28.6,28.5,28.6,28.5,28.6z"/>
					<path class="st0" d="M27.6,19.6l0-0.1C27.6,19.5,27.6,19.5,27.6,19.6z"/>
					<path class="st0" d="M27.6,10.7L27.6,10.7C27.6,10.6,27.6,10.7,27.6,10.7z"/>
					<path class="st0" d="M27.5,19.1c0.1,0,0.2,0,0.2-0.1c0,0,0,0-0.1,0L27.5,19.1z"/>
					<path class="st0" d="M27.7,5.8C27.7,5.8,27.7,5.8,27.7,5.8C27.7,5.8,27.7,5.8,27.7,5.8z"/>
					<path class="st0" d="M27,5.1c0,0.1,0.4,0,0.6,0.1c0.1,0.1-0.3,0.1-0.5,0.1c0.1,0.1,0.4,0.1,0.4,0.2c-0.1,0-0.1,0-0.2,0
						c0.3,0.1,0,0.2,0.4,0.3c0,0-0.1,0-0.1,0c0.2,0,0.4,0,0.5,0c0,0,0.2,0.1,0,0.1c0,0-0.1,0-0.2,0l0.1,0c-0.3,0.1-0.1-0.1-0.4-0.1
						c0.1,0.1,0.4,0.2,0.3,0.3c-0.3,0-0.1-0.2-0.4-0.1l0.1-0.1c-0.5,0.1,0-0.1-0.5,0c-0.1,0.1,0.2,0.2,0.1,0.3c0.2,0,0.3,0,0.5,0
						c0.3,0.2-0.8,0.2-0.4,0.3c0.2,0,0.7,0,0.4,0.2l-0.4,0c0,0.1,0.6,0.1,0.3,0.2c-0.2,0-0.1-0.1-0.2-0.1c-0.3,0.1,0.2,0.1,0.2,0.1
						l-0.3,0c0.1,0.1,0.3,0.3,0.4,0.5c-0.1,0-0.2,0-0.3,0c0.2,0.2,0,0.5-0.2,0.7l0.3,0.1c0,0-0.1,0-0.2,0c-0.1,0.1,0.2,0,0.3,0
						c0,0-0.2,0.1-0.3,0c0.3,0.1,0.5,0.4,0.2,0.5l-0.1,0c-0.1,0.1,0.6,0.1,0.3,0.2l-0.1,0c-0.1,0.3,0.2,0.5-0.3,0.7
						C28,9.7,27.4,10,28,10c-0.3,0.1-0.4,0.1-0.6,0.3c0,0.1,0.4,0.1,0.4,0.1l-0.3,0l0.3,0.1l-0.4,0.1l0.1,0.1c0,0,0.1-0.1,0.2-0.1
						c0.1,0.1-0.2,0.2-0.4,0.2l0.3,0.2c-0.1,0-0.2,0-0.2-0.1c0.3,0.1-0.3,0,0,0.1c0.1,0,0.2,0,0.2,0c-0.2,0.1-0.2,0.2-0.1,0.3
						l-0.2,0c-0.1,0.2,0.1,0.4,0.1,0.5c0.1-0.1,0.5-0.1,0.5,0l-0.3,0c0.2,0,0.1-0.1,0.4,0c0,0.1-0.4,0.1-0.5,0l0.1,0.1
						c-0.1,0-0.1,0-0.3,0c0.2,0-0.3,0.2,0,0.2l-0.1,0c0,0.2,0.1,0.3,0.1,0.4c0.3,0,0.2,0.1,0.4,0.1c-0.1,0.1-0.3,0.2-0.3,0.4
						c0.1,0.1,0.2,0,0.4,0.1c-0.3,0-0.2,0.2-0.4,0.1c0,0.2,0.1,0.2,0.3,0.4c0.1,0,0.1-0.1,0.2,0c0,0-0.1,0.1-0.2,0.1l0,0
						c0.4,0.2-0.7,0.6-0.2,0.7l0,0l0.3,0.2c0,0.1-0.2,0-0.4,0c0.4,0.2-0.1,0.3,0.2,0.5c-0.8,0.2,0.1,0.5-0.4,0.7l0.2,0
						c0.2,0-0.1,0.1-0.1,0.1c0.1,0,0.2-0.1,0.3,0c0.2,0.4-0.2,0.8-0.4,1.2c0,0.1,0.9,0.1,0.5,0.3l-0.3,0c0.4,0.3,0,0.6,0.3,0.9
						c-0.1,0-0.2,0-0.2,0c-0.2,0.1,0,0.2,0.2,0.2c0,0-0.2,0-0.3,0c-0.1,0.1,0.3,0.1,0.1,0.2c0,0-0.1,0-0.1,0c0.1,0,0,0.2,0.3,0.1
						c-0.1,0.1,0.1,0.2,0,0.3c0.3,0-0.1,0.2,0.3,0.2c-0.5,0-0.4,0.2-0.1,0.3c-0.1,0-0.1,0.1-0.3,0c0,0.1,0.1,0.1,0.3,0.1
						c-0.5,0.2,0.4,0.3-0.2,0.4c0.2,0.2,0.4,0.4,0.5,0.7c-0.5,0-0.1-0.2-0.5-0.2c0.2,0.2,0.6,0.3,0.5,0.5c-0.1,0.1-0.2,0-0.3,0
						c0.2,0.2,0,0.4,0.2,0.6c0,0-0.1,0-0.1,0c0,0-0.1,0.1,0.1,0.1l-0.1,0c0.3-0.1,0.6,0.1,0.8,0.1c-0.6,0-0.1,0.2-0.9,0.1
						c0,0,0.1,0,0.3,0c0,0-0.1,0-0.3,0c0.1,0.1,0.3,0.1,0.3,0.2c-0.1,0-0.1,0-0.3,0c0.2,0.1,0.4,0.1,0.3,0.2c-0.1,0-0.1,0-0.1,0
						c0,0.2,0.5,0.3,0.3,0.5c-0.4,0-0.1,0.1-0.5,0.1l0.1,0.1l0.2,0c0,0.1,0.3,0.2,0.1,0.2L28.3,23l0.1,0.2l0.1-0.1
						c0.2,0.1,0.5,0,0.4,0.1c0,0,0,0.1-0.2,0.1c0,0,0,0,0,0c0.1,0,0.2,0.1,0.2,0.1c-0.1,0-0.4,0-0.5,0c0.3,0,0.1,0.2,0.4,0.2
						c-0.1,0-0.3,0-0.3,0l0.3,0c-0.1,0-0.1,0-0.3,0c0,0.1,0.5,0,0.3,0.1c0,0-0.1,0-0.1,0c-0.1,0.1,0.2,0.3,0,0.4
						c-0.4,0-0.1-0.1-0.4-0.1c0.1,0.2,0.5,0.4,0.4,0.6l0,0c0.5,0-0.3,0.1,0,0.2c0,0-0.3,0-0.2,0c-0.1,0.1,0.1,0.3,0.3,0.4l-0.1,0
						c-0.1,0.1-0.1,0.2-0.1,0.3c0.1,0,0.1,0.1,0.3,0c-0.8,0.3,0.4,0.5-0.2,0.7c0,0-0.1-0.1-0.1,0l0.1,0.2c0.2,0,0.1,0,0.3-0.1
						c0.1,0,0.2,0.1,0.2,0.1c-0.2-0.1-0.4,0-0.5,0c0.1,0,0.1,0,0.2,0c-0.4,0.1,0.5,0,0.2,0.1l-0.1,0c0.1,0,0.2,0.1,0.2,0.1
						c-0.3,0-0.1,0-0.3,0c0,0.1,0.5,0.1,0.2,0.2c-0.1,0-0.1-0.1-0.2-0.1c-0.3,0.1-0.2,0.1-0.3,0.1l0,0l-0.1,0.1l0.1,0
						c0.7,0.1,0.1,0.2,0.6,0.3c-0.4-0.1-0.3,0-0.6,0c-0.1,0-0.2,0.1-0.3,0.1c0.2,0.1-0.2,0.1,0.2,0.2c-0.1,0,0,0.1-0.3,0.1
						c0.1,0.1,0.2,0,0.3,0c0.3,0.1-0.4,0.3,0.1,0.5c0.2,0.1,0.5,0.2,0.7,0.3c-0.2,0.1-0.4,0-0.4,0c-0.1,0.1-0.1,0.1,0,0.2
						c-0.1,0-0.2,0-0.3,0c0,0.1,0.4,0,0.2,0.1c-0.1,0-0.3,0-0.4,0c0.1,0.1,0.3,0.1,0.4,0.2c-0.2,0-0.3,0-0.4-0.1
						c0.1,0.1,0.2,0.2,0.4,0.2l0.1-0.1c0,0-0.2,0-0.3,0c-0.2-0.1,0.1-0.1,0.2-0.1l0.1,0c0.6-0.1-0.1-0.2-0.1-0.3l0.4,0l-0.3-0.1
						c0.1,0,0.3,0,0.4,0c0.2-0.1-0.1-0.1,0.1-0.1c0,0,0.1,0,0.1,0l-0.1-0.1c0.1,0,0.3,0,0.2,0c0.2-0.1-0.3-0.2,0-0.2l0,0
						c-0.1-0.2-0.3,0-0.7-0.1l0.8-0.1l-0.3,0c0,0,0-0.1,0.2-0.1c-0.2-0.1-0.1,0-0.3,0c0.3-0.1-0.1-0.2,0.4-0.3c-0.2,0-0.2,0.1-0.3,0
						c0.5,0-0.1-0.1,0.1-0.2c0.3,0,0.1,0.1,0.4,0c-0.5,0,0.1-0.2,0-0.2c-0.4,0-0.2-0.1-0.3-0.2c0.1,0,0.2-0.2,0.3-0.3l0.1,0
						c-0.4,0-0.3-0.1-0.4-0.2c0.2,0,0.3,0,0.4,0l0-0.1c-0.1,0-0.2,0-0.2-0.1l0.3,0c0-0.1-0.3-0.2-0.1-0.3c-0.3,0-0.7,0.1-0.9,0
						c0.1,0,0.4,0,0.4,0c0,0-0.1,0-0.1-0.1l0.2,0c0.1-0.1-0.2,0-0.2-0.1c0.2,0,0.1,0,0.3,0c0,0-0.1,0,0,0.1c0-0.1,0.1-0.1,0.3-0.1
						c-0.1,0-0.3,0-0.3,0c0-0.1,0.2,0,0.3-0.1c-0.1,0,0-0.1-0.3-0.1c0,0,0.1,0,0.2,0c-0.1,0,0-0.2-0.4-0.2l0,0c0,0,0,0,0,0
						c0,0,0,0,0,0l0,0c-0.3-0.2,0.2-0.3,0-0.5l0.1,0c-0.1-0.1-0.1-0.2-0.3-0.3c0,0,0.2-0.1,0.3-0.1c-0.1-0.1-0.2-0.1,0-0.2
						c0.2,0.1,0.2,0,0.1,0.1c0.1-0.1,0.2-0.1,0-0.2c0.3,0,0.3-0.1,0.2-0.1l-0.2,0.1c0-0.1,0-0.1,0-0.1l0.3,0c0.4-0.2-0.7-0.3,0-0.5
						c-0.2,0-0.2,0.1-0.4,0.1c0-0.1,0.5-0.2,0.5-0.2c0.2-0.1-0.5-0.1-0.4-0.2c-0.1,0-0.4,0-0.5-0.1c0-0.1,0.5-0.1,0.6-0.1
						c0,0,0,0-0.1,0c0,0,0.1,0.1,0.2,0l-0.1,0c0.1,0,0.1-0.2,0.3-0.1c-0.1-0.1-0.2,0-0.3,0c0.2-0.1,0-0.2,0.1-0.3
						c-0.1,0-0.2,0-0.2,0c0.1-0.2-0.2-0.1-0.3-0.2c0.2-0.1,0.4,0,0.3-0.1c0.1-0.1,0.3,0,0.4,0c-0.2-0.1,0.1-0.2,0.2-0.3l0.1,0.1
						c-0.1,0-0.1-0.1-0.1-0.1l-0.2,0c0,0,0-0.1,0.1-0.1c-0.2,0-0.4,0-0.6,0c0.1,0-0.1-0.1,0.2-0.2c-0.1,0.1,0.3,0,0.4,0.1
						c0,0,0-0.1,0-0.1c0,0,0.1,0,0.1,0c0.3-0.1-0.4-0.1-0.4-0.2c0.2,0,0.3,0,0.3-0.1c0,0.1-0.3,0-0.4,0c0.1-0.1-0.1-0.1-0.1-0.1
						l-0.1,0.1c-0.2,0-0.2-0.1-0.2-0.1c0.1,0,0.1,0.1,0.2,0c-0.3-0.1,0.3-0.2,0.1-0.3c0.1,0,0.3,0,0.4-0.1c-0.2-0.1,0.2-0.1,0-0.2
						c-0.2,0-0.2,0-0.4,0L30,21l-0.3-0.1c0,0.1,0.2,0.1,0.1,0.2c-0.2-0.1-0.1,0-0.3,0c0.4-0.1-0.2-0.1,0-0.2l0.6,0
						c0.3-0.1-0.3-0.2-0.2-0.4l-0.1,0.1c-0.2,0,0-0.1-0.1-0.2c0.2,0,0.3,0,0.4-0.1c-0.1,0,0-0.1-0.4-0.1l0.3-0.1
						c0.1-0.1-0.6-0.1-0.5-0.3c0.2,0,0.4,0,0.5,0.1c0,0,0-0.1-0.1-0.1c0.1,0-0.3-0.1-0.1-0.2c-0.1,0-0.3,0-0.3-0.1c0,0,0.1,0,0.1,0
						c-0.1,0-0.1-0.1-0.4,0c0.6-0.2-0.1-0.4,0.5-0.5c-0.1-0.1-0.1-0.2-0.2-0.3c0.1,0,0.1,0,0.1,0c0.2-0.1-0.6-0.1-0.4-0.2
						c0.3-0.1,0.2,0.1,0.3,0c0.6,0-0.1-0.2,0.3-0.3l0,0c0.2-0.1-0.3-0.2-0.2-0.3c0,0,0.1,0,0.1,0c-0.3-0.1-0.4-0.2-0.5-0.3
						c0.3,0,0.1,0,0.4,0c0-0.1-0.4,0-0.5-0.1c0.1,0,0.3-0.1,0.5-0.1l0,0.1c0.4-0.1,0-0.1,0-0.2l0.2,0c-0.1-0.1-0.4-0.1-0.4-0.3
						l-0.1,0c-0.4-0.1,0.2-0.1-0.1-0.2l0.4,0c-0.1-0.1-0.4-0.2-0.5-0.3c0.3,0.1,0.4,0.2,0.6,0.2c0-0.1,0-0.2-0.2-0.2
						c0,0,0.1,0,0.1,0.1c-0.3-0.1-0.5-0.2-0.5-0.3c0.8,0,0.2-0.3,0.8-0.4c-0.3-0.2,0.1-0.4,0.1-0.6c-0.6,0.1,0-0.1-0.6,0
						c0-0.1,0-0.1,0-0.1l0.4-0.2c0.2,0,0.1,0,0.3,0c0-0.1,0.3-0.1,0.4-0.1c-0.2,0-0.3,0-0.2-0.1L30,14.9c-0.3-0.2,0.5-0.2,0.2-0.3
						l0.2,0c-0.1-0.1,0-0.3-0.5-0.4c0.1,0,0.2,0,0.3,0c0.1-0.2-0.5-0.4-0.2-0.6l0.1,0c0,0-0.3-0.1-0.1-0.1c0.1,0,0.1,0,0.2,0
						c-0.1,0-0.3-0.1-0.2-0.1l0.2,0c0.2-0.2-0.4-0.3-0.5-0.5c0.4,0,0.6-0.2,0.6-0.3l0.1,0c0-0.2-0.4-0.4-0.6-0.6
						c0.5-0.1,0.2-0.5,0.5-0.7c-0.1,0-0.3,0-0.4,0c0.1-0.1-0.3-0.1,0.1-0.1l0,0c0.4,0,0.3-0.1,0.3-0.2l-0.5,0
						c0.8-0.2-0.3-0.6,0.4-0.7c-0.1,0-0.1-0.1-0.3-0.2l0.3,0c0.1-0.1,0.1-0.2,0-0.4l0.2,0c0-0.1-0.8-0.1-0.8-0.2l0.4,0
						c0-0.2,0.4-0.4,0-0.5c0.1,0,0.2,0,0.2,0c0-0.1,0.3-0.3-0.3-0.3c0.4,0,0-0.2-0.1-0.3l0.3,0c-0.4-0.1-0.5-0.1-0.6-0.2
						c0,0,0.2,0,0.2,0c0.1-0.1-0.3-0.1-0.1-0.2l0.2,0c0-0.1-0.1-0.1-0.3-0.1c-0.1-0.1,0.1-0.2,0.3-0.2c-0.2,0-0.4-0.1-0.3-0.1
						c0.1,0,0.2,0,0.2,0c0.2-0.2-0.3-0.2-0.1-0.3c0.1,0,0.1,0,0.2,0c0,0.1,0,0.2,0,0.2c0.3,0,0.3-0.1,0.7,0
						c-0.2-0.1-0.6-0.2-0.5-0.3c0,0,0,0,0.1,0l0,0c0,0,0,0,0-0.1c0,0,0.1-0.1,0.1-0.1c0.2,0,0.1-0.1,0.1-0.2c-0.3,0-0.2-0.1-0.5,0
						c0,0,0,0,0,0c0,0,0,0,0,0c0,0,0,0,0,0c0,0,0,0.1,0,0.1c-0.1,0-0.3-0.1-0.1-0.1c-0.2,0-0.4,0-0.5-0.1c0.4-0.1,0.6-0.2,0.8-0.2
						c-0.2-0.1-0.1-0.3-0.6-0.4c-0.1,0,0.2-0.1,0.2-0.1c0.1,0,0,0.1,0.1,0.1c-0.1-0.1-0.1-0.2-0.4-0.3c0.2-0.1,0.3,0.1,0.3-0.1
						l0.1,0c0.6-0.3-1-0.4-0.2-0.8c0,0-0.1,0-0.1,0c0.3-0.4-0.3-0.7,0.2-1.1c0.1-0.1-0.1-0.1-0.3-0.2l0.3,0L29,4
						c-0.3-0.1,0.7-0.3,0.2-0.5l-0.2,0c0-0.1-0.1-0.2,0.1-0.2c0,0-0.2,0-0.1,0l0.2,0l-0.3-0.2c0.1-0.1,0.6,0,0.7-0.2
						c-0.1-0.1-0.5-0.2-0.6-0.2c0,0-0.1,0.1-0.3,0.1l-0.1-0.1c-0.5,0-0.9,0-1.3,0.1L27.7,3l-0.2,0l0-0.1c-0.2,0.1,0,0.1,0.1,0.1
						c-0.1,0-0.2,0-0.2,0.1l0.4,0.1c-0.2,0-0.4,0-0.5,0c0.2,0,0.4-0.1,0.5,0c-0.2,0.1-0.4,0-0.2,0.1c-0.1,0-0.2,0-0.2,0
						c0.1,0.1,0.1,0.1,0.3,0.2c-0.3,0.1,0.1,0.2-0.4,0.2c0.1,0,0.3,0.1,0.4,0.1c-0.5-0.1,0,0.2-0.6,0.2c0.5,0.1,0.2,0.2,0.5,0.4
						c0,0-0.1,0-0.1,0c0,0.1-0.2,0.1-0.3,0.1c0.4,0,0.5,0.1,0.7,0.2c-0.4,0.1-0.5,0-0.8,0c0.3,0,0.3,0.1,0.6,0.1
						c-0.2,0.1-0.1,0.1-0.4,0.1c0.5,0,0.1,0.1,0.4,0.1c-0.2,0.1-0.5,0-0.3,0.1C27.2,5.2,27,5.1,27,5.1z M27.9,7.4
						C27.9,7.4,27.9,7.4,27.9,7.4C27.9,7.4,27.9,7.4,27.9,7.4C27.9,7.4,27.9,7.4,27.9,7.4z M27.9,7.6C27.9,7.6,27.9,7.6,27.9,7.6
						c0.1-0.1,0.2-0.1,0.2-0.1C28.1,7.6,28,7.6,27.9,7.6z M29.9,7.2C29.9,7.2,29.9,7.2,29.9,7.2c-0.1,0-0.1,0-0.1,0c0,0,0,0,0,0
						C29.8,7.2,29.8,7.2,29.9,7.2z"/>
					<path class="st0" d="M29.5,7.1C29.5,7.1,29.5,7.1,29.5,7.1C29.5,7.1,29.4,7.1,29.5,7.1C29.4,7.1,29.5,7.1,29.5,7.1
						C29.5,7.1,29.5,7.1,29.5,7.1z"/>
					<path class="st0" d="M29.5,25.4L29.5,25.4C29.5,25.4,29.5,25.4,29.5,25.4C29.5,25.4,29.5,25.4,29.5,25.4z"/>
					<polygon class="st0" points="27.5,10.4 27.5,10.4 27.5,10.4 					"/>
					<path class="st0" d="M28.6,26.5C28.6,26.5,28.5,26.5,28.6,26.5C28.5,26.5,28.6,26.5,28.6,26.5z"/>
					<path class="st0" d="M28.5,27L28.5,27C28.5,27,28.5,27,28.5,27z"/>
					<path class="st0" d="M28.4,27.4c0,0,0.1,0,0.1,0c0,0,0,0,0,0L28.4,27.4z"/>
					<path class="st0" d="M27.9,21.5C27.9,21.5,27.9,21.5,27.9,21.5C27.9,21.5,27.9,21.5,27.9,21.5z"/>
					<path class="st0" d="M28.6,23.2c-0.1,0-0.1,0-0.1-0.1C28.5,23.2,28.5,23.2,28.6,23.2z"/>
					<path class="st0" d="M27.6,19.6C27.6,19.6,27.6,19.6,27.6,19.6C27.6,19.6,27.6,19.6,27.6,19.6L27.6,19.6z"/>
					<path class="st0" d="M28.5,23.1C28.5,23.1,28.5,23.2,28.5,23.1C28.5,23.2,28.5,23.1,28.5,23.1z"/>
					<path class="st0" d="M28.3,29L28.3,29C28.3,29,28.3,29,28.3,29L28.3,29z"/>
					<path class="st0" d="M28.4,29L28.4,29C28.4,29,28.4,29,28.4,29z"/>
					<path class="st0" d="M28.5,29L28.5,29C28.4,29,28.4,29,28.5,29z"/>
					<path class="st0" d="M28.4,28.5l-0.1,0C28.4,28.5,28.4,28.5,28.4,28.5z"/>
					<path class="st0" d="M28.4,28.3c0,0-0.2,0.1-0.2,0.1l0.1,0C28.2,28.5,28.6,28.4,28.4,28.3z"/>
					<path class="st0" d="M29.7,27.7l-0.1,0.1c0.1,0,0.3-0.1,0.3,0C30.2,27.6,29.6,27.8,29.7,27.7z"/>
					<path class="st0" d="M29.8,27.3c0.1,0.1,0.2,0,0.2,0C29.9,27.2,29.9,27.2,29.8,27.3z"/>
					<path class="st0" d="M29.7,24.5l0.3,0C30,24.5,29.9,24.5,29.7,24.5z"/>
					<polygon class="st0" points="28.4,24 28.2,24.1 28.5,24.1 					"/>
					<polygon class="st0" points="30.2,23.7 30.2,23.7 30.2,23.6 					"/>
					<path class="st0" d="M30,19l-0.3,0C29.8,19,30.1,19,30,19z"/>
					<path class="st0" d="M29.6,17c0.2,0,0.3-0.1,0.1-0.1C29.7,16.9,29.6,17,29.6,17z"/>
					<polygon class="st0" points="30,10.9 30.1,11 30,10.9 					"/>
				</g>
			</g>
		</g>
	</g>
</g>
<rect x="4.2" y="12.1" class="st1" width="10.5" height="3.1"/>
<text transform="matrix(1 0 0 1 6.5854 17.2656)" class="st2 st3 st4">VOIR</text>
</svg>
